<svg version="1.1" xmlns="http://www.w3.org/2000/svg" xmlns:xlink="http://www.w3.org/1999/xlink" width="159.51904296875" height="608"><defs/><g><text fill="#eeeeee" stroke="none" font-family="Arial" font-size="24px" font-style="normal" font-weight="normal" text-decoration="none" x="0" y="0">UNREGISTERED</text><text fill="#eeeeee" stroke="none" font-family="Arial" font-size="24px" font-style="normal" font-weight="normal" text-decoration="none" x="0" y="30">UNREGISTERED</text><text fill="#eeeeee" stroke="none" font-family="Arial" font-size="24px" font-style="normal" font-weight="normal" text-decoration="none" x="0" y="60">UNREGISTERED</text><text fill="#eeeeee" stroke="none" font-family="Arial" font-size="24px" font-style="normal" font-weight="normal" text-decoration="none" x="0" y="90">UNREGISTERED</text><text fill="#eeeeee" stroke="none" font-family="Arial" font-size="24px" font-style="normal" font-weight="normal" text-decoration="none" x="0" y="120">UNREGISTERED</text><text fill="#eeeeee" stroke="none" font-family="Arial" font-size="24px" font-style="normal" font-weight="normal" text-decoration="none" x="0" y="150">UNREGISTERED</text><text fill="#eeeeee" stroke="none" font-family="Arial" font-size="24px" font-style="normal" font-weight="normal" text-decoration="none" x="0" y="180">UNREGISTERED</text><text fill="#eeeeee" stroke="none" font-family="Arial" font-size="24px" font-style="normal" font-weight="normal" text-decoration="none" x="0" y="210">UNREGISTERED</text><text fill="#eeeeee" stroke="none" font-family="Arial" font-size="24px" font-style="normal" font-weight="normal" text-decoration="none" x="0" y="240">UNREGISTERED</text><text fill="#eeeeee" stroke="none" font-family="Arial" font-size="24px" font-style="normal" font-weight="normal" text-decoration="none" x="0" y="270">UNREGISTERED</text><text fill="#eeeeee" stroke="none" font-family="Arial" font-size="24px" font-style="normal" font-weight="normal" text-decoration="none" x="0" y="300">UNREGISTERED</text><text fill="#eeeeee" stroke="none" font-family="Arial" font-size="24px" font-style="normal" font-weight="normal" text-decoration="none" x="0" y="330">UNREGISTERED</text><text fill="#eeeeee" stroke="none" font-family="Arial" font-size="24px" font-style="normal" font-weight="normal" text-decoration="none" x="0" y="360">UNREGISTERED</text><text fill="#eeeeee" stroke="none" font-family="Arial" font-size="24px" font-style="normal" font-weight="normal" text-decoration="none" x="0" y="390">UNREGISTERED</text><text fill="#eeeeee" stroke="none" font-family="Arial" font-size="24px" font-style="normal" font-weight="normal" text-decoration="none" x="0" y="420">UNREGISTERED</text><text fill="#eeeeee" stroke="none" font-family="Arial" font-size="24px" font-style="normal" font-weight="normal" text-decoration="none" x="0" y="450">UNREGISTERED</text><text fill="#eeeeee" stroke="none" font-family="Arial" font-size="24px" font-style="normal" font-weight="normal" text-decoration="none" x="0" y="480">UNREGISTERED</text><text fill="#eeeeee" stroke="none" font-family="Arial" font-size="24px" font-style="normal" font-weight="normal" text-decoration="none" x="0" y="510">UNREGISTERED</text><text fill="#eeeeee" stroke="none" font-family="Arial" font-size="24px" font-style="normal" font-weight="normal" text-decoration="none" x="0" y="540">UNREGISTERED</text><text fill="#eeeeee" stroke="none" font-family="Arial" font-size="24px" font-style="normal" font-weight="normal" text-decoration="none" x="0" y="570">UNREGISTERED</text><text fill="#eeeeee" stroke="none" font-family="Arial" font-size="24px" font-style="normal" font-weight="normal" text-decoration="none" x="0" y="600">UNREGISTERED</text><g transform="translate(-390,-54) scale(1,1)"><rect fill="#C0C0C0" stroke="none" x="407" y="71" width="139.51904296875" height="90" opacity="0.2"/></g><g transform="translate(-390,-54) scale(1,1)"><rect fill="#ffffff" stroke="none" x="400" y="64" width="139.51904296875" height="90"/></g><g transform="translate(-390,-54) scale(1,1)"><path fill="none" stroke="#000000" d="M 400 64 L 539.51904296875 64 L 539.51904296875 154 L 400 154 L 400 64 Z Z" stroke-miterlimit="10"/></g><g transform="translate(-390,-54) scale(1,1)"><path fill="none" stroke="#000000" d="M 400 87 L 539.51904296875 87" stroke-miterlimit="10"/></g><g transform="translate(-390,-54) scale(1,1)"><path fill="none" stroke="#000000" d="M 410 87 L 410 154" stroke-miterlimit="10"/></g><g transform="translate(-390,-54) scale(1,1)"><path fill="none" stroke="#000000" d="M 512.4599609375 87 L 512.4599609375 154" stroke-miterlimit="10"/></g><g transform="translate(-390,-54) scale(1,1)"><g><path fill="none" stroke="none"/><text fill="#000000" stroke="none" font-family="Arial" font-size="13px" font-style="normal" font-weight="bold" text-decoration="none" x="440.864990234375" y="81.5">UserStory</text></g></g><g transform="translate(-390,-54) scale(1,1)"><g><path fill="none" stroke="none"/><text fill="#000000" stroke="none" font-family="Arial" font-size="13px" font-style="normal" font-weight="normal" text-decoration="none" x="405" y="105"></text></g></g><g transform="translate(-390,-54) scale(1,1)"><g><path fill="none" stroke="none"/><text fill="#000000" stroke="none" font-family="Arial" font-size="13px" font-style="normal" font-weight="normal" text-decoration="none" x="415" y="105">id</text></g></g><g transform="translate(-390,-54) scale(1,1)"><g><path fill="none" stroke="none"/><text fill="#000000" stroke="none" font-family="Arial" font-size="13px" font-style="normal" font-weight="normal" text-decoration="none" x="517.4599609375" y="105">PK</text></g></g><g transform="translate(-390,-54) scale(1,1)"><g><path fill="none" stroke="none"/><text fill="#000000" stroke="none" font-family="Arial" font-size="13px" font-style="normal" font-weight="normal" text-decoration="none" x="405" y="104.5"></text></g></g><g transform="translate(-390,-54) scale(1,1)"><g><path fill="none" stroke="none"/><text fill="#000000" stroke="none" font-family="Arial" font-size="13px" font-style="normal" font-weight="normal" text-decoration="none" x="405" y="120"></text></g></g><g transform="translate(-390,-54) scale(1,1)"><g><path fill="none" stroke="none"/><text fill="#000000" stroke="none" font-family="Arial" font-size="13px" font-style="normal" font-weight="normal" text-decoration="none" x="415" y="120">name</text></g></g><g transform="translate(-390,-54) scale(1,1)"><g><path fill="none" stroke="none"/><text fill="#000000" stroke="none" font-family="Arial" font-size="13px" font-style="normal" font-weight="normal" text-decoration="none" x="517.4599609375" y="120"></text></g></g><g transform="translate(-390,-54) scale(1,1)"><g><path fill="none" stroke="none"/><text fill="#000000" stroke="none" font-family="Arial" font-size="13px" font-style="normal" font-weight="normal" text-decoration="none" x="405" y="119.5"></text></g></g><g transform="translate(-390,-54) scale(1,1)"><g><path fill="none" stroke="none"/><text fill="#000000" stroke="none" font-family="Arial" font-size="13px" font-style="normal" font-weight="normal" text-decoration="none" x="405" y="135"></text></g></g><g transform="translate(-390,-54) scale(1,1)"><g><path fill="none" stroke="none"/><text fill="#000000" stroke="none" font-family="Arial" font-size="13px" font-style="normal" font-weight="normal" text-decoration="none" x="415" y="135">storyPoints</text></g></g><g transform="translate(-390,-54) scale(1,1)"><g><path fill="none" stroke="none"/><text fill="#000000" stroke="none" font-family="Arial" font-size="13px" font-style="normal" font-weight="normal" text-decoration="none" x="517.4599609375" y="135"></text></g></g><g transform="translate(-390,-54) scale(1,1)"><g><path fill="none" stroke="none"/><text fill="#000000" stroke="none" font-family="Arial" font-size="13px" font-style="normal" font-weight="normal" text-decoration="none" x="405" y="134.5"></text></g></g><g transform="translate(-390,-54) scale(1,1)"><g><path fill="none" stroke="none"/><text fill="#000000" stroke="none" font-family="Arial" font-size="13px" font-style="normal" font-weight="normal" text-decoration="none" x="405" y="150"></text></g></g><g transform="translate(-390,-54) scale(1,1)"><g><path fill="none" stroke="none"/><text fill="#000000" stroke="none" font-family="Arial" font-size="13px" font-style="normal" font-weight="normal" text-decoration="none" x="415" y="150">proyectedEffor</text></g></g><g transform="translate(-390,-54) scale(1,1)"><g><path fill="none" stroke="none"/><text fill="#000000" stroke="none" font-family="Arial" font-size="13px" font-style="normal" font-weight="normal" text-decoration="none" x="517.4599609375" y="150"></text></g></g><g transform="translate(-390,-54) scale(1,1)"><g><path fill="none" stroke="none"/><text fill="#000000" stroke="none" font-family="Arial" font-size="13px" font-style="normal" font-weight="normal" text-decoration="none" x="405" y="149.5"></text></g></g><g transform="translate(-390,-54) scale(1,1)"><rect fill="#C0C0C0" stroke="none" x="407" y="247" width="139.51904296875" height="90" opacity="0.2"/></g><g transform="translate(-390,-54) scale(1,1)"><rect fill="#ffffff" stroke="none" x="400" y="240" width="139.51904296875" height="90"/></g><g transform="translate(-390,-54) scale(1,1)"><path fill="none" stroke="#000000" d="M 400 240 L 539.51904296875 240 L 539.51904296875 330 L 400 330 L 400 240 Z Z" stroke-miterlimit="10"/></g><g transform="translate(-390,-54) scale(1,1)"><path fill="none" stroke="#000000" d="M 400 263 L 539.51904296875 263" stroke-miterlimit="10"/></g><g transform="translate(-390,-54) scale(1,1)"><path fill="none" stroke="#000000" d="M 410 263 L 410 330" stroke-miterlimit="10"/></g><g transform="translate(-390,-54) scale(1,1)"><path fill="none" stroke="#000000" d="M 512.4599609375 263 L 512.4599609375 330" stroke-miterlimit="10"/></g><g transform="translate(-390,-54) scale(1,1)"><g><path fill="none" stroke="none"/><text fill="#000000" stroke="none" font-family="Arial" font-size="13px" font-style="normal" font-weight="bold" text-decoration="none" x="456.39453125" y="257.5">Task</text></g></g><g transform="translate(-390,-54) scale(1,1)"><g><path fill="none" stroke="none"/><text fill="#000000" stroke="none" font-family="Arial" font-size="13px" font-style="normal" font-weight="normal" text-decoration="none" x="405" y="281"></text></g></g><g transform="translate(-390,-54) scale(1,1)"><g><path fill="none" stroke="none"/><text fill="#000000" stroke="none" font-family="Arial" font-size="13px" font-style="normal" font-weight="normal" text-decoration="none" x="415" y="281">id</text></g></g><g transform="translate(-390,-54) scale(1,1)"><g><path fill="none" stroke="none"/><text fill="#000000" stroke="none" font-family="Arial" font-size="13px" font-style="normal" font-weight="normal" text-decoration="none" x="517.4599609375" y="281">PK</text></g></g><g transform="translate(-390,-54) scale(1,1)"><g><path fill="none" stroke="none"/><text fill="#000000" stroke="none" font-family="Arial" font-size="13px" font-style="normal" font-weight="normal" text-decoration="none" x="405" y="280.5"></text></g></g><g transform="translate(-390,-54) scale(1,1)"><g><path fill="none" stroke="none"/><text fill="#000000" stroke="none" font-family="Arial" font-size="13px" font-style="normal" font-weight="normal" text-decoration="none" x="405" y="296"></text></g></g><g transform="translate(-390,-54) scale(1,1)"><g><path fill="none" stroke="none"/><text fill="#000000" stroke="none" font-family="Arial" font-size="13px" font-style="normal" font-weight="normal" text-decoration="none" x="415" y="296">name</text></g></g><g transform="translate(-390,-54) scale(1,1)"><g><path fill="none" stroke="none"/><text fill="#000000" stroke="none" font-family="Arial" font-size="13px" font-style="normal" font-weight="normal" text-decoration="none" x="517.4599609375" y="296"></text></g></g><g transform="translate(-390,-54) scale(1,1)"><g><path fill="none" stroke="none"/><text fill="#000000" stroke="none" font-family="Arial" font-size="13px" font-style="normal" font-weight="normal" text-decoration="none" x="405" y="295.5"></text></g></g><g transform="translate(-390,-54) scale(1,1)"><g><path fill="none" stroke="none"/><text fill="#000000" stroke="none" font-family="Arial" font-size="13px" font-style="normal" font-weight="normal" text-decoration="none" x="405" y="311"></text></g></g><g transform="translate(-390,-54) scale(1,1)"><g><path fill="none" stroke="none"/><text fill="#000000" stroke="none" font-family="Arial" font-size="13px" font-style="normal" font-weight="normal" text-decoration="none" x="415" y="311">proyectedEffor</text></g></g><g transform="translate(-390,-54) scale(1,1)"><g><path fill="none" stroke="none"/><text fill="#000000" stroke="none" font-family="Arial" font-size="13px" font-style="normal" font-weight="normal" text-decoration="none" x="517.4599609375" y="311"></text></g></g><g transform="translate(-390,-54) scale(1,1)"><g><path fill="none" stroke="none"/><text fill="#000000" stroke="none" font-family="Arial" font-size="13px" font-style="normal" font-weight="normal" text-decoration="none" x="405" y="310.5"></text></g></g><g transform="translate(-390,-54) scale(1,1)"><g><path fill="none" stroke="none"/><text fill="#000000" stroke="none" font-family="Arial" font-size="13px" font-style="normal" font-weight="normal" text-decoration="none" x="405" y="326"></text></g></g><g transform="translate(-390,-54) scale(1,1)"><g><path fill="none" stroke="none"/><text fill="#000000" stroke="none" font-family="Arial" font-size="13px" font-style="normal" font-weight="normal" text-decoration="none" x="415" y="326">userStoryId</text></g></g><g transform="translate(-390,-54) scale(1,1)"><g><path fill="none" stroke="none"/><text fill="#000000" stroke="none" font-family="Arial" font-size="13px" font-style="normal" font-weight="normal" text-decoration="none" x="517.4599609375" y="326">FK</text></g></g><g transform="translate(-390,-54) scale(1,1)"><g><path fill="none" stroke="none"/><text fill="#000000" stroke="none" font-family="Arial" font-size="13px" font-style="normal" font-weight="normal" text-decoration="none" x="405" y="325.5"></text></g></g><g transform="translate(-390,-54) scale(1,1)"><rect fill="#C0C0C0" stroke="none" x="425" y="599" width="102.6708984375" height="60" opacity="0.2"/></g><g transform="translate(-390,-54) scale(1,1)"><rect fill="#ffffff" stroke="none" x="418" y="592" width="102.6708984375" height="60"/></g><g transform="translate(-390,-54) scale(1,1)"><path fill="none" stroke="#000000" d="M 418 592 L 520.6708984375 592 L 520.6708984375 652 L 418 652 L 418 592 Z Z" stroke-miterlimit="10"/></g><g transform="translate(-390,-54) scale(1,1)"><path fill="none" stroke="#000000" d="M 418 615 L 520.6708984375 615" stroke-miterlimit="10"/></g><g transform="translate(-390,-54) scale(1,1)"><path fill="none" stroke="#000000" d="M 428 615 L 428 652" stroke-miterlimit="10"/></g><g transform="translate(-390,-54) scale(1,1)"><path fill="none" stroke="#000000" d="M 491.4599609375 615 L 491.4599609375 652" stroke-miterlimit="10"/></g><g transform="translate(-390,-54) scale(1,1)"><g><path fill="none" stroke="none"/><text fill="#000000" stroke="none" font-family="Arial" font-size="13px" font-style="normal" font-weight="bold" text-decoration="none" x="442.23095703125" y="609.5">Schedule</text></g></g><g transform="translate(-390,-54) scale(1,1)"><g><path fill="none" stroke="none"/><text fill="#000000" stroke="none" font-family="Arial" font-size="13px" font-style="normal" font-weight="normal" text-decoration="none" x="423" y="633"></text></g></g><g transform="translate(-390,-54) scale(1,1)"><g><path fill="none" stroke="none"/><text fill="#000000" stroke="none" font-family="Arial" font-size="13px" font-style="normal" font-weight="normal" text-decoration="none" x="433" y="633">id</text></g></g><g transform="translate(-390,-54) scale(1,1)"><g><path fill="none" stroke="none"/><text fill="#000000" stroke="none" font-family="Arial" font-size="13px" font-style="normal" font-weight="normal" text-decoration="none" x="496.4599609375" y="633">PK</text></g></g><g transform="translate(-390,-54) scale(1,1)"><g><path fill="none" stroke="none"/><text fill="#000000" stroke="none" font-family="Arial" font-size="13px" font-style="normal" font-weight="normal" text-decoration="none" x="423" y="632.5"></text></g></g><g transform="translate(-390,-54) scale(1,1)"><g><path fill="none" stroke="none"/><text fill="#000000" stroke="none" font-family="Arial" font-size="13px" font-style="normal" font-weight="normal" text-decoration="none" x="423" y="648"></text></g></g><g transform="translate(-390,-54) scale(1,1)"><g><path fill="none" stroke="none"/><text fill="#000000" stroke="none" font-family="Arial" font-size="13px" font-style="normal" font-weight="normal" text-decoration="none" x="433" y="648">datetime</text></g></g><g transform="translate(-390,-54) scale(1,1)"><g><path fill="none" stroke="none"/><text fill="#000000" stroke="none" font-family="Arial" font-size="13px" font-style="normal" font-weight="normal" text-decoration="none" x="496.4599609375" y="648"></text></g></g><g transform="translate(-390,-54) scale(1,1)"><g><path fill="none" stroke="none"/><text fill="#000000" stroke="none" font-family="Arial" font-size="13px" font-style="normal" font-weight="normal" text-decoration="none" x="423" y="647.5"></text></g></g><g transform="translate(-390,-54) scale(1,1)"><rect fill="#C0C0C0" stroke="none" x="419" y="430" width="114.96630859375" height="90" opacity="0.2"/></g><g transform="translate(-390,-54) scale(1,1)"><rect fill="#ffffff" stroke="none" x="412" y="423" width="114.96630859375" height="90"/></g><g transform="translate(-390,-54) scale(1,1)"><path fill="none" stroke="#000000" d="M 412 423 L 526.96630859375 423 L 526.96630859375 513 L 412 513 L 412 423 Z Z" stroke-miterlimit="10"/></g><g transform="translate(-390,-54) scale(1,1)"><path fill="none" stroke="#000000" d="M 412 446 L 526.96630859375 446" stroke-miterlimit="10"/></g><g transform="translate(-390,-54) scale(1,1)"><path fill="none" stroke="#000000" d="M 422 446 L 422 513" stroke-miterlimit="10"/></g><g transform="translate(-390,-54) scale(1,1)"><path fill="none" stroke="#000000" d="M 499.9072265625 446 L 499.9072265625 513" stroke-miterlimit="10"/></g><g transform="translate(-390,-54) scale(1,1)"><g><path fill="none" stroke="none"/><text fill="#000000" stroke="none" font-family="Arial" font-size="13px" font-style="normal" font-weight="bold" text-decoration="none" x="428.17578125" y="440.5">TimeSchedule</text></g></g><g transform="translate(-390,-54) scale(1,1)"><g><path fill="none" stroke="none"/><text fill="#000000" stroke="none" font-family="Arial" font-size="13px" font-style="normal" font-weight="normal" text-decoration="none" x="417" y="464"></text></g></g><g transform="translate(-390,-54) scale(1,1)"><g><path fill="none" stroke="none"/><text fill="#000000" stroke="none" font-family="Arial" font-size="13px" font-style="normal" font-weight="normal" text-decoration="none" x="427" y="464">id</text></g></g><g transform="translate(-390,-54) scale(1,1)"><g><path fill="none" stroke="none"/><text fill="#000000" stroke="none" font-family="Arial" font-size="13px" font-style="normal" font-weight="normal" text-decoration="none" x="504.9072265625" y="464">PK</text></g></g><g transform="translate(-390,-54) scale(1,1)"><g><path fill="none" stroke="none"/><text fill="#000000" stroke="none" font-family="Arial" font-size="13px" font-style="normal" font-weight="normal" text-decoration="none" x="417" y="463.5"></text></g></g><g transform="translate(-390,-54) scale(1,1)"><g><path fill="none" stroke="none"/><text fill="#000000" stroke="none" font-family="Arial" font-size="13px" font-style="normal" font-weight="normal" text-decoration="none" x="417" y="479"></text></g></g><g transform="translate(-390,-54) scale(1,1)"><g><path fill="none" stroke="none"/><text fill="#000000" stroke="none" font-family="Arial" font-size="13px" font-style="normal" font-weight="normal" text-decoration="none" x="427" y="479">time</text></g></g><g transform="translate(-390,-54) scale(1,1)"><g><path fill="none" stroke="none"/><text fill="#000000" stroke="none" font-family="Arial" font-size="13px" font-style="normal" font-weight="normal" text-decoration="none" x="504.9072265625" y="479"></text></g></g><g transform="translate(-390,-54) scale(1,1)"><g><path fill="none" stroke="none"/><text fill="#000000" stroke="none" font-family="Arial" font-size="13px" font-style="normal" font-weight="normal" text-decoration="none" x="417" y="478.5"></text></g></g><g transform="translate(-390,-54) scale(1,1)"><g><path fill="none" stroke="none"/><text fill="#000000" stroke="none" font-family="Arial" font-size="13px" font-style="normal" font-weight="normal" text-decoration="none" x="417" y="494"></text></g></g><g transform="translate(-390,-54) scale(1,1)"><g><path fill="none" stroke="none"/><text fill="#000000" stroke="none" font-family="Arial" font-size="13px" font-style="normal" font-weight="normal" text-decoration="none" x="427" y="494">scheduleId</text></g></g><g transform="translate(-390,-54) scale(1,1)"><g><path fill="none" stroke="none"/><text fill="#000000" stroke="none" font-family="Arial" font-size="13px" font-style="normal" font-weight="normal" text-decoration="none" x="504.9072265625" y="494">FK</text></g></g><g transform="translate(-390,-54) scale(1,1)"><g><path fill="none" stroke="none"/><text fill="#000000" stroke="none" font-family="Arial" font-size="13px" font-style="normal" font-weight="normal" text-decoration="none" x="417" y="493.5"></text></g></g><g transform="translate(-390,-54) scale(1,1)"><g><path fill="none" stroke="none"/><text fill="#000000" stroke="none" font-family="Arial" font-size="13px" font-style="normal" font-weight="normal" text-decoration="none" x="417" y="509"></text></g></g><g transform="translate(-390,-54) scale(1,1)"><g><path fill="none" stroke="none"/><text fill="#000000" stroke="none" font-family="Arial" font-size="13px" font-style="normal" font-weight="normal" text-decoration="none" x="427" y="509">taskId</text></g></g><g transform="translate(-390,-54) scale(1,1)"><g><path fill="none" stroke="none"/><text fill="#000000" stroke="none" font-family="Arial" font-size="13px" font-style="normal" font-weight="normal" text-decoration="none" x="504.9072265625" y="509">FK</text></g></g><g transform="translate(-390,-54) scale(1,1)"><g><path fill="none" stroke="none"/><text fill="#000000" stroke="none" font-family="Arial" font-size="13px" font-style="normal" font-weight="normal" text-decoration="none" x="417" y="508.5"></text></g></g><g transform="translate(-390,-54) scale(1,1)"><path fill="none" stroke="#000000" d="M 469 240 L 469 154" stroke-miterlimit="10"/></g><g transform="translate(-390,-54) scale(1,1)"><path fill="none" stroke="#000000" d="M 476 161 L 462 161" stroke-miterlimit="10"/></g><g transform="translate(-390,-54) scale(1,1)"><path fill="none" stroke="#000000" d="M 476 168 L 462 168" stroke-miterlimit="10"/></g><g transform="translate(-390,-54) scale(1,1)"><path fill="none" stroke="#000000" d="M 462 233 L 476 233" stroke-miterlimit="10"/></g><g transform="translate(-390,-54) scale(1,1)"><path fill="none" stroke="#000000" d="M 462 226 L 476 226" stroke-miterlimit="10"/></g><g transform="translate(-390,-54) scale(1,1)"><g><path fill="none" stroke="none"/><text fill="#000000" stroke="none" font-family="Arial" font-size="13px" font-style="normal" font-weight="normal" text-decoration="none" x="479.5" y="235.5">belongsTo</text></g></g><g transform="translate(-390,-54) scale(1,1)"><g><path fill="none" stroke="none"/><text fill="#000000" stroke="none" font-family="Arial" font-size="13px" font-style="normal" font-weight="normal" text-decoration="none" x="453.5" y="220.5"></text></g></g><g transform="translate(-390,-54) scale(1,1)"><g><path fill="none" stroke="none"/><text fill="#000000" stroke="none" font-family="Arial" font-size="13px" font-style="normal" font-weight="normal" text-decoration="none" x="453.5" y="185.5"></text></g></g><g transform="translate(-390,-54) scale(1,1)"><path fill="none" stroke="#000000" d="M 469 423 L 469 330" stroke-miterlimit="10"/></g><g transform="translate(-390,-54) scale(1,1)"><path fill="none" stroke="#000000" d="M 469 344 L 476 330" stroke-miterlimit="10"/></g><g transform="translate(-390,-54) scale(1,1)"><path fill="none" stroke="#000000" d="M 469 344 L 462 330" stroke-miterlimit="10"/></g><g transform="translate(-390,-54) scale(1,1)"><path fill="#FFFFFF" stroke="none" d="M 462 352 C 462 348.1340064 465.1340064 345 469 345 C 472.8659936 345 476 348.1340064 476 352 C 476 355.8659936 472.8659936 359 469 359 C 465.1340064 359 462 355.8659936 462 352 Z"/></g><g transform="translate(-390,-54) scale(1,1)"><path fill="none" stroke="#000000" d="M 462 352 C 462 348.1340064 465.1340064 345 469 345 C 472.8659936 345 476 348.1340064 476 352 C 476 355.8659936 472.8659936 359 469 359 C 465.1340064 359 462 355.8659936 462 352 Z" stroke-miterlimit="10"/></g><g transform="translate(-390,-54) scale(1,1)"><path fill="none" stroke="#000000" d="M 469 409 L 462 423" stroke-miterlimit="10"/></g><g transform="translate(-390,-54) scale(1,1)"><path fill="none" stroke="#000000" d="M 469 409 L 476 423" stroke-miterlimit="10"/></g><g transform="translate(-390,-54) scale(1,1)"><path fill="#FFFFFF" stroke="none" d="M 462 401 C 462 397.1340064 465.1340064 394 469 394 C 472.8659936 394 476 397.1340064 476 401 C 476 404.8659936 472.8659936 408 469 408 C 465.1340064 408 462 404.8659936 462 401 Z"/></g><g transform="translate(-390,-54) scale(1,1)"><path fill="none" stroke="#000000" d="M 462 401 C 462 397.1340064 465.1340064 394 469 394 C 472.8659936 394 476 397.1340064 476 401 C 476 404.8659936 472.8659936 408 469 408 C 465.1340064 408 462 404.8659936 462 401 Z" stroke-miterlimit="10"/></g><g transform="translate(-390,-54) scale(1,1)"><g><path fill="none" stroke="none"/><text fill="#000000" stroke="none" font-family="Arial" font-size="13px" font-style="normal" font-weight="normal" text-decoration="none" x="481.5" y="419.5">hasMany</text></g></g><g transform="translate(-390,-54) scale(1,1)"><g><path fill="none" stroke="none"/><text fill="#000000" stroke="none" font-family="Arial" font-size="13px" font-style="normal" font-weight="normal" text-decoration="none" x="453.5" y="403.5"></text></g></g><g transform="translate(-390,-54) scale(1,1)"><g><path fill="none" stroke="none"/><text fill="#000000" stroke="none" font-family="Arial" font-size="13px" font-style="normal" font-weight="normal" text-decoration="none" x="453.5" y="361.5"></text></g></g><g transform="translate(-390,-54) scale(1,1)"><path fill="none" stroke="#000000" d="M 469 592 L 469 513" stroke-miterlimit="10"/></g><g transform="translate(-390,-54) scale(1,1)"><path fill="none" stroke="#000000" d="M 469 527 L 476 513" stroke-miterlimit="10"/></g><g transform="translate(-390,-54) scale(1,1)"><path fill="none" stroke="#000000" d="M 469 527 L 462 513" stroke-miterlimit="10"/></g><g transform="translate(-390,-54) scale(1,1)"><path fill="#FFFFFF" stroke="none" d="M 462 535 C 462 531.1340064 465.1340064 528 469 528 C 472.8659936 528 476 531.1340064 476 535 C 476 538.8659936 472.8659936 542 469 542 C 465.1340064 542 462 538.8659936 462 535 Z"/></g><g transform="translate(-390,-54) scale(1,1)"><path fill="none" stroke="#000000" d="M 462 535 C 462 531.1340064 465.1340064 528 469 528 C 472.8659936 528 476 531.1340064 476 535 C 476 538.8659936 472.8659936 542 469 542 C 465.1340064 542 462 538.8659936 462 535 Z" stroke-miterlimit="10"/></g><g transform="translate(-390,-54) scale(1,1)"><path fill="none" stroke="#000000" d="M 469 578 L 462 592" stroke-miterlimit="10"/></g><g transform="translate(-390,-54) scale(1,1)"><path fill="none" stroke="#000000" d="M 469 578 L 476 592" stroke-miterlimit="10"/></g><g transform="translate(-390,-54) scale(1,1)"><path fill="#FFFFFF" stroke="none" d="M 462 570 C 462 566.1340064 465.1340064 563 469 563 C 472.8659936 563 476 566.1340064 476 570 C 476 573.8659936 472.8659936 577 469 577 C 465.1340064 577 462 573.8659936 462 570 Z"/></g><g transform="translate(-390,-54) scale(1,1)"><path fill="none" stroke="#000000" d="M 462 570 C 462 566.1340064 465.1340064 563 469 563 C 472.8659936 563 476 566.1340064 476 570 C 476 573.8659936 472.8659936 577 469 577 C 465.1340064 577 462 573.8659936 462 570 Z" stroke-miterlimit="10"/></g><g transform="translate(-390,-54) scale(1,1)"><g><path fill="none" stroke="none"/><text fill="#000000" stroke="none" font-family="Arial" font-size="13px" font-style="normal" font-weight="normal" text-decoration="none" x="481.5" y="531.5">hasMany</text></g></g><g transform="translate(-390,-54) scale(1,1)"><g><path fill="none" stroke="none"/><text fill="#000000" stroke="none" font-family="Arial" font-size="13px" font-style="normal" font-weight="normal" text-decoration="none" x="453.5" y="572.5"></text></g></g><g transform="translate(-390,-54) scale(1,1)"><g><path fill="none" stroke="none"/><text fill="#000000" stroke="none" font-family="Arial" font-size="13px" font-style="normal" font-weight="normal" text-decoration="none" x="453.5" y="544.5"></text></g></g></g></svg>