<svg version="1.1" xmlns="http://www.w3.org/2000/svg" xmlns:xlink="http://www.w3.org/1999/xlink" width="160.9599609375" height="544"><defs/><g><text fill="#eeeeee" stroke="none" font-family="Arial" font-size="24px" font-style="normal" font-weight="normal" text-decoration="none" x="0" y="0">UNREGISTERED</text><text fill="#eeeeee" stroke="none" font-family="Arial" font-size="24px" font-style="normal" font-weight="normal" text-decoration="none" x="0" y="30">UNREGISTERED</text><text fill="#eeeeee" stroke="none" font-family="Arial" font-size="24px" font-style="normal" font-weight="normal" text-decoration="none" x="0" y="60">UNREGISTERED</text><text fill="#eeeeee" stroke="none" font-family="Arial" font-size="24px" font-style="normal" font-weight="normal" text-decoration="none" x="0" y="90">UNREGISTERED</text><text fill="#eeeeee" stroke="none" font-family="Arial" font-size="24px" font-style="normal" font-weight="normal" text-decoration="none" x="0" y="120">UNREGISTERED</text><text fill="#eeeeee" stroke="none" font-family="Arial" font-size="24px" font-style="normal" font-weight="normal" text-decoration="none" x="0" y="150">UNREGISTERED</text><text fill="#eeeeee" stroke="none" font-family="Arial" font-size="24px" font-style="normal" font-weight="normal" text-decoration="none" x="0" y="180">UNREGISTERED</text><text fill="#eeeeee" stroke="none" font-family="Arial" font-size="24px" font-style="normal" font-weight="normal" text-decoration="none" x="0" y="210">UNREGISTERED</text><text fill="#eeeeee" stroke="none" font-family="Arial" font-size="24px" font-style="normal" font-weight="normal" text-decoration="none" x="0" y="240">UNREGISTERED</text><text fill="#eeeeee" stroke="none" font-family="Arial" font-size="24px" font-style="normal" font-weight="normal" text-decoration="none" x="0" y="270">UNREGISTERED</text><text fill="#eeeeee" stroke="none" font-family="Arial" font-size="24px" font-style="normal" font-weight="normal" text-decoration="none" x="0" y="300">UNREGISTERED</text><text fill="#eeeeee" stroke="none" font-family="Arial" font-size="24px" font-style="normal" font-weight="normal" text-decoration="none" x="0" y="330">UNREGISTERED</text><text fill="#eeeeee" stroke="none" font-family="Arial" font-size="24px" font-style="normal" font-weight="normal" text-decoration="none" x="0" y="360">UNREGISTERED</text><text fill="#eeeeee" stroke="none" font-family="Arial" font-size="24px" font-style="normal" font-weight="normal" text-decoration="none" x="0" y="390">UNREGISTERED</text><text fill="#eeeeee" stroke="none" font-family="Arial" font-size="24px" font-style="normal" font-weight="normal" text-decoration="none" x="0" y="420">UNREGISTERED</text><text fill="#eeeeee" stroke="none" font-family="Arial" font-size="24px" font-style="normal" font-weight="normal" text-decoration="none" x="0" y="450">UNREGISTERED</text><text fill="#eeeeee" stroke="none" font-family="Arial" font-size="24px" font-style="normal" font-weight="normal" text-decoration="none" x="0" y="480">UNREGISTERED</text><text fill="#eeeeee" stroke="none" font-family="Arial" font-size="24px" font-style="normal" font-weight="normal" text-decoration="none" x="0" y="510">UNREGISTERED</text><text fill="#eeeeee" stroke="none" font-family="Arial" font-size="24px" font-style="normal" font-weight="normal" text-decoration="none" x="0" y="540">UNREGISTERED</text><g transform="translate(-389,-102) scale(1,1)"><rect fill="#C0C0C0" stroke="none" x="406" y="119" width="140.9599609375" height="75" opacity="0.2"/></g><g transform="translate(-389,-102) scale(1,1)"><rect fill="#ffffff" stroke="none" x="399" y="112" width="140.9599609375" height="75"/></g><g transform="translate(-389,-102) scale(1,1)"><path fill="none" stroke="#000000" d="M 399 112 L 539.9599609375 112 L 539.9599609375 187 L 399 187 L 399 112 Z Z" stroke-miterlimit="10"/></g><g transform="translate(-389,-102) scale(1,1)"><path fill="none" stroke="#000000" d="M 399 135 L 539.9599609375 135" stroke-miterlimit="10"/></g><g transform="translate(-389,-102) scale(1,1)"><path fill="none" stroke="#000000" d="M 409 135 L 409 187" stroke-miterlimit="10"/></g><g transform="translate(-389,-102) scale(1,1)"><path fill="none" stroke="#000000" d="M 491.95361328125 135 L 491.95361328125 187" stroke-miterlimit="10"/></g><g transform="translate(-389,-102) scale(1,1)"><g><path fill="none" stroke="none"/><text fill="#000000" stroke="none" font-family="Arial" font-size="13px" font-style="normal" font-weight="bold" text-decoration="none" x="440.58544921875" y="129.5">UserStory</text></g></g><g transform="translate(-389,-102) scale(1,1)"><g><path fill="none" stroke="none"/><text fill="#000000" stroke="none" font-family="Arial" font-size="13px" font-style="normal" font-weight="normal" text-decoration="none" x="404" y="153"></text></g></g><g transform="translate(-389,-102) scale(1,1)"><g><path fill="none" stroke="none"/><text fill="#000000" stroke="none" font-family="Arial" font-size="13px" font-style="normal" font-weight="normal" text-decoration="none" x="414" y="153">Id</text></g></g><g transform="translate(-389,-102) scale(1,1)"><g><path fill="none" stroke="none"/><text fill="#000000" stroke="none" font-family="Arial" font-size="13px" font-style="normal" font-weight="normal" text-decoration="none" x="496.95361328125" y="153">PK</text></g></g><g transform="translate(-389,-102) scale(1,1)"><g><path fill="none" stroke="none"/><text fill="#000000" stroke="none" font-family="Arial" font-size="13px" font-style="normal" font-weight="normal" text-decoration="none" x="404" y="152.5"></text></g></g><g transform="translate(-389,-102) scale(1,1)"><g><path fill="none" stroke="none"/><text fill="#000000" stroke="none" font-family="Arial" font-size="13px" font-style="normal" font-weight="normal" text-decoration="none" x="404" y="168"></text></g></g><g transform="translate(-389,-102) scale(1,1)"><g><path fill="none" stroke="none"/><text fill="#000000" stroke="none" font-family="Arial" font-size="13px" font-style="normal" font-weight="normal" text-decoration="none" x="414" y="168">Name</text></g></g><g transform="translate(-389,-102) scale(1,1)"><g><path fill="none" stroke="none"/><text fill="#000000" stroke="none" font-family="Arial" font-size="13px" font-style="normal" font-weight="normal" text-decoration="none" x="496.95361328125" y="168"></text></g></g><g transform="translate(-389,-102) scale(1,1)"><g><path fill="none" stroke="none"/><text fill="#000000" stroke="none" font-family="Arial" font-size="13px" font-style="normal" font-weight="normal" text-decoration="none" x="404" y="167.5"></text></g></g><g transform="translate(-389,-102) scale(1,1)"><g><path fill="none" stroke="none"/><text fill="#000000" stroke="none" font-family="Arial" font-size="13px" font-style="normal" font-weight="normal" text-decoration="none" x="404" y="183"></text></g></g><g transform="translate(-389,-102) scale(1,1)"><g><path fill="none" stroke="none"/><text fill="#000000" stroke="none" font-family="Arial" font-size="13px" font-style="normal" font-weight="normal" text-decoration="none" x="414" y="183">StoryPoints</text></g></g><g transform="translate(-389,-102) scale(1,1)"><g><path fill="none" stroke="none"/><text fill="#000000" stroke="none" font-family="Arial" font-size="13px" font-style="normal" font-weight="normal" text-decoration="none" x="496.95361328125" y="183"></text></g></g><g transform="translate(-389,-102) scale(1,1)"><g><path fill="none" stroke="none"/><text fill="#000000" stroke="none" font-family="Arial" font-size="13px" font-style="normal" font-weight="normal" text-decoration="none" x="404" y="182.5"></text></g></g><g transform="translate(-389,-102) scale(1,1)"><rect fill="#C0C0C0" stroke="none" x="406" y="247" width="140.9599609375" height="90" opacity="0.2"/></g><g transform="translate(-389,-102) scale(1,1)"><rect fill="#ffffff" stroke="none" x="399" y="240" width="140.9599609375" height="90"/></g><g transform="translate(-389,-102) scale(1,1)"><path fill="none" stroke="#000000" d="M 399 240 L 539.9599609375 240 L 539.9599609375 330 L 399 330 L 399 240 Z Z" stroke-miterlimit="10"/></g><g transform="translate(-389,-102) scale(1,1)"><path fill="none" stroke="#000000" d="M 399 263 L 539.9599609375 263" stroke-miterlimit="10"/></g><g transform="translate(-389,-102) scale(1,1)"><path fill="none" stroke="#000000" d="M 409 263 L 409 330" stroke-miterlimit="10"/></g><g transform="translate(-389,-102) scale(1,1)"><path fill="none" stroke="#000000" d="M 512.90087890625 263 L 512.90087890625 330" stroke-miterlimit="10"/></g><g transform="translate(-389,-102) scale(1,1)"><g><path fill="none" stroke="none"/><text fill="#000000" stroke="none" font-family="Arial" font-size="13px" font-style="normal" font-weight="bold" text-decoration="none" x="456.114990234375" y="257.5">Task</text></g></g><g transform="translate(-389,-102) scale(1,1)"><g><path fill="none" stroke="none"/><text fill="#000000" stroke="none" font-family="Arial" font-size="13px" font-style="normal" font-weight="normal" text-decoration="none" x="404" y="281"></text></g></g><g transform="translate(-389,-102) scale(1,1)"><g><path fill="none" stroke="none"/><text fill="#000000" stroke="none" font-family="Arial" font-size="13px" font-style="normal" font-weight="normal" text-decoration="none" x="414" y="281">Id</text></g></g><g transform="translate(-389,-102) scale(1,1)"><g><path fill="none" stroke="none"/><text fill="#000000" stroke="none" font-family="Arial" font-size="13px" font-style="normal" font-weight="normal" text-decoration="none" x="517.90087890625" y="281">PK</text></g></g><g transform="translate(-389,-102) scale(1,1)"><g><path fill="none" stroke="none"/><text fill="#000000" stroke="none" font-family="Arial" font-size="13px" font-style="normal" font-weight="normal" text-decoration="none" x="404" y="280.5"></text></g></g><g transform="translate(-389,-102) scale(1,1)"><g><path fill="none" stroke="none"/><text fill="#000000" stroke="none" font-family="Arial" font-size="13px" font-style="normal" font-weight="normal" text-decoration="none" x="404" y="296"></text></g></g><g transform="translate(-389,-102) scale(1,1)"><g><path fill="none" stroke="none"/><text fill="#000000" stroke="none" font-family="Arial" font-size="13px" font-style="normal" font-weight="normal" text-decoration="none" x="414" y="296">Name</text></g></g><g transform="translate(-389,-102) scale(1,1)"><g><path fill="none" stroke="none"/><text fill="#000000" stroke="none" font-family="Arial" font-size="13px" font-style="normal" font-weight="normal" text-decoration="none" x="517.90087890625" y="296"></text></g></g><g transform="translate(-389,-102) scale(1,1)"><g><path fill="none" stroke="none"/><text fill="#000000" stroke="none" font-family="Arial" font-size="13px" font-style="normal" font-weight="normal" text-decoration="none" x="404" y="295.5"></text></g></g><g transform="translate(-389,-102) scale(1,1)"><g><path fill="none" stroke="none"/><text fill="#000000" stroke="none" font-family="Arial" font-size="13px" font-style="normal" font-weight="normal" text-decoration="none" x="404" y="311"></text></g></g><g transform="translate(-389,-102) scale(1,1)"><g><path fill="none" stroke="none"/><text fill="#000000" stroke="none" font-family="Arial" font-size="13px" font-style="normal" font-weight="normal" text-decoration="none" x="414" y="311">ProjectedEffort</text></g></g><g transform="translate(-389,-102) scale(1,1)"><g><path fill="none" stroke="none"/><text fill="#000000" stroke="none" font-family="Arial" font-size="13px" font-style="normal" font-weight="normal" text-decoration="none" x="517.90087890625" y="311"></text></g></g><g transform="translate(-389,-102) scale(1,1)"><g><path fill="none" stroke="none"/><text fill="#000000" stroke="none" font-family="Arial" font-size="13px" font-style="normal" font-weight="normal" text-decoration="none" x="404" y="310.5"></text></g></g><g transform="translate(-389,-102) scale(1,1)"><g><path fill="none" stroke="none"/><text fill="#000000" stroke="none" font-family="Arial" font-size="13px" font-style="normal" font-weight="normal" text-decoration="none" x="404" y="326"></text></g></g><g transform="translate(-389,-102) scale(1,1)"><g><path fill="none" stroke="none"/><text fill="#000000" stroke="none" font-family="Arial" font-size="13px" font-style="normal" font-weight="normal" text-decoration="none" x="414" y="326">UserStoryId</text></g></g><g transform="translate(-389,-102) scale(1,1)"><g><path fill="none" stroke="none"/><text fill="#000000" stroke="none" font-family="Arial" font-size="13px" font-style="normal" font-weight="normal" text-decoration="none" x="517.90087890625" y="326">FK</text></g></g><g transform="translate(-389,-102) scale(1,1)"><g><path fill="none" stroke="none"/><text fill="#000000" stroke="none" font-family="Arial" font-size="13px" font-style="normal" font-weight="normal" text-decoration="none" x="404" y="325.5"></text></g></g><g transform="translate(-389,-102) scale(1,1)"><rect fill="#C0C0C0" stroke="none" x="423" y="583" width="106.7841796875" height="60" opacity="0.2"/></g><g transform="translate(-389,-102) scale(1,1)"><rect fill="#ffffff" stroke="none" x="416" y="576" width="106.7841796875" height="60"/></g><g transform="translate(-389,-102) scale(1,1)"><path fill="none" stroke="#000000" d="M 416 576 L 522.7841796875 576 L 522.7841796875 636 L 416 636 L 416 576 Z Z" stroke-miterlimit="10"/></g><g transform="translate(-389,-102) scale(1,1)"><path fill="none" stroke="#000000" d="M 416 599 L 522.7841796875 599" stroke-miterlimit="10"/></g><g transform="translate(-389,-102) scale(1,1)"><path fill="none" stroke="#000000" d="M 426 599 L 426 636" stroke-miterlimit="10"/></g><g transform="translate(-389,-102) scale(1,1)"><path fill="none" stroke="#000000" d="M 464.17724609375 599 L 464.17724609375 636" stroke-miterlimit="10"/></g><g transform="translate(-389,-102) scale(1,1)"><g><path fill="none" stroke="none"/><text fill="#000000" stroke="none" font-family="Arial" font-size="13px" font-style="normal" font-weight="bold" text-decoration="none" x="442.28759765625" y="593.5">Schedule</text></g></g><g transform="translate(-389,-102) scale(1,1)"><g><path fill="none" stroke="none"/><text fill="#000000" stroke="none" font-family="Arial" font-size="13px" font-style="normal" font-weight="normal" text-decoration="none" x="421" y="617"></text></g></g><g transform="translate(-389,-102) scale(1,1)"><g><path fill="none" stroke="none"/><text fill="#000000" stroke="none" font-family="Arial" font-size="13px" font-style="normal" font-weight="normal" text-decoration="none" x="431" y="617">id</text></g></g><g transform="translate(-389,-102) scale(1,1)"><g><path fill="none" stroke="none"/><text fill="#000000" stroke="none" font-family="Arial" font-size="13px" font-style="normal" font-weight="normal" text-decoration="none" x="469.17724609375" y="617">PK</text></g></g><g transform="translate(-389,-102) scale(1,1)"><g><path fill="none" stroke="none"/><text fill="#000000" stroke="none" font-family="Arial" font-size="13px" font-style="normal" font-weight="normal" text-decoration="none" x="421" y="616.5"></text></g></g><g transform="translate(-389,-102) scale(1,1)"><g><path fill="none" stroke="none"/><text fill="#000000" stroke="none" font-family="Arial" font-size="13px" font-style="normal" font-weight="normal" text-decoration="none" x="421" y="632"></text></g></g><g transform="translate(-389,-102) scale(1,1)"><g><path fill="none" stroke="none"/><text fill="#000000" stroke="none" font-family="Arial" font-size="13px" font-style="normal" font-weight="normal" text-decoration="none" x="431" y="632">Date</text></g></g><g transform="translate(-389,-102) scale(1,1)"><g><path fill="none" stroke="none"/><text fill="#000000" stroke="none" font-family="Arial" font-size="13px" font-style="normal" font-weight="normal" text-decoration="none" x="469.17724609375" y="632"></text></g></g><g transform="translate(-389,-102) scale(1,1)"><g><path fill="none" stroke="none"/><text fill="#000000" stroke="none" font-family="Arial" font-size="13px" font-style="normal" font-weight="normal" text-decoration="none" x="421" y="631.5"></text></g></g><g transform="translate(-389,-102) scale(1,1)"><rect fill="#C0C0C0" stroke="none" x="418" y="407" width="116.4072265625" height="105" opacity="0.2"/></g><g transform="translate(-389,-102) scale(1,1)"><rect fill="#ffffff" stroke="none" x="411" y="400" width="116.4072265625" height="105"/></g><g transform="translate(-389,-102) scale(1,1)"><path fill="none" stroke="#000000" d="M 411 400 L 527.4072265625 400 L 527.4072265625 505 L 411 505 L 411 400 Z Z" stroke-miterlimit="10"/></g><g transform="translate(-389,-102) scale(1,1)"><path fill="none" stroke="#000000" d="M 411 423 L 527.4072265625 423" stroke-miterlimit="10"/></g><g transform="translate(-389,-102) scale(1,1)"><path fill="none" stroke="#000000" d="M 421 423 L 421 505" stroke-miterlimit="10"/></g><g transform="translate(-389,-102) scale(1,1)"><path fill="none" stroke="#000000" d="M 500.34814453125 423 L 500.34814453125 505" stroke-miterlimit="10"/></g><g transform="translate(-389,-102) scale(1,1)"><g><path fill="none" stroke="none"/><text fill="#000000" stroke="none" font-family="Arial" font-size="13px" font-style="normal" font-weight="bold" text-decoration="none" x="427.896240234375" y="417.5">TimeSchedule</text></g></g><g transform="translate(-389,-102) scale(1,1)"><g><path fill="none" stroke="none"/><text fill="#000000" stroke="none" font-family="Arial" font-size="13px" font-style="normal" font-weight="normal" text-decoration="none" x="416" y="441"></text></g></g><g transform="translate(-389,-102) scale(1,1)"><g><path fill="none" stroke="none"/><text fill="#000000" stroke="none" font-family="Arial" font-size="13px" font-style="normal" font-weight="normal" text-decoration="none" x="426" y="441">Id</text></g></g><g transform="translate(-389,-102) scale(1,1)"><g><path fill="none" stroke="none"/><text fill="#000000" stroke="none" font-family="Arial" font-size="13px" font-style="normal" font-weight="normal" text-decoration="none" x="505.34814453125" y="441">PK</text></g></g><g transform="translate(-389,-102) scale(1,1)"><g><path fill="none" stroke="none"/><text fill="#000000" stroke="none" font-family="Arial" font-size="13px" font-style="normal" font-weight="normal" text-decoration="none" x="416" y="440.5"></text></g></g><g transform="translate(-389,-102) scale(1,1)"><g><path fill="none" stroke="none"/><text fill="#000000" stroke="none" font-family="Arial" font-size="13px" font-style="normal" font-weight="normal" text-decoration="none" x="416" y="456"></text></g></g><g transform="translate(-389,-102) scale(1,1)"><g><path fill="none" stroke="none"/><text fill="#000000" stroke="none" font-family="Arial" font-size="13px" font-style="normal" font-weight="normal" text-decoration="none" x="426" y="456">ScheduleId</text></g></g><g transform="translate(-389,-102) scale(1,1)"><g><path fill="none" stroke="none"/><text fill="#000000" stroke="none" font-family="Arial" font-size="13px" font-style="normal" font-weight="normal" text-decoration="none" x="505.34814453125" y="456">FK</text></g></g><g transform="translate(-389,-102) scale(1,1)"><g><path fill="none" stroke="none"/><text fill="#000000" stroke="none" font-family="Arial" font-size="13px" font-style="normal" font-weight="normal" text-decoration="none" x="416" y="455.5"></text></g></g><g transform="translate(-389,-102) scale(1,1)"><g><path fill="none" stroke="none"/><text fill="#000000" stroke="none" font-family="Arial" font-size="13px" font-style="normal" font-weight="normal" text-decoration="none" x="416" y="471"></text></g></g><g transform="translate(-389,-102) scale(1,1)"><g><path fill="none" stroke="none"/><text fill="#000000" stroke="none" font-family="Arial" font-size="13px" font-style="normal" font-weight="normal" text-decoration="none" x="426" y="471">TimeStart</text></g></g><g transform="translate(-389,-102) scale(1,1)"><g><path fill="none" stroke="none"/><text fill="#000000" stroke="none" font-family="Arial" font-size="13px" font-style="normal" font-weight="normal" text-decoration="none" x="505.34814453125" y="471"></text></g></g><g transform="translate(-389,-102) scale(1,1)"><g><path fill="none" stroke="none"/><text fill="#000000" stroke="none" font-family="Arial" font-size="13px" font-style="normal" font-weight="normal" text-decoration="none" x="416" y="470.5"></text></g></g><g transform="translate(-389,-102) scale(1,1)"><g><path fill="none" stroke="none"/><text fill="#000000" stroke="none" font-family="Arial" font-size="13px" font-style="normal" font-weight="normal" text-decoration="none" x="416" y="486"></text></g></g><g transform="translate(-389,-102) scale(1,1)"><g><path fill="none" stroke="none"/><text fill="#000000" stroke="none" font-family="Arial" font-size="13px" font-style="normal" font-weight="normal" text-decoration="none" x="426" y="486">TimeEnd</text></g></g><g transform="translate(-389,-102) scale(1,1)"><g><path fill="none" stroke="none"/><text fill="#000000" stroke="none" font-family="Arial" font-size="13px" font-style="normal" font-weight="normal" text-decoration="none" x="505.34814453125" y="486"></text></g></g><g transform="translate(-389,-102) scale(1,1)"><g><path fill="none" stroke="none"/><text fill="#000000" stroke="none" font-family="Arial" font-size="13px" font-style="normal" font-weight="normal" text-decoration="none" x="416" y="485.5"></text></g></g><g transform="translate(-389,-102) scale(1,1)"><g><path fill="none" stroke="none"/><text fill="#000000" stroke="none" font-family="Arial" font-size="13px" font-style="normal" font-weight="normal" text-decoration="none" x="416" y="501"></text></g></g><g transform="translate(-389,-102) scale(1,1)"><g><path fill="none" stroke="none"/><text fill="#000000" stroke="none" font-family="Arial" font-size="13px" font-style="normal" font-weight="normal" text-decoration="none" x="426" y="501">TaskId</text></g></g><g transform="translate(-389,-102) scale(1,1)"><g><path fill="none" stroke="none"/><text fill="#000000" stroke="none" font-family="Arial" font-size="13px" font-style="normal" font-weight="normal" text-decoration="none" x="505.34814453125" y="501">FK</text></g></g><g transform="translate(-389,-102) scale(1,1)"><g><path fill="none" stroke="none"/><text fill="#000000" stroke="none" font-family="Arial" font-size="13px" font-style="normal" font-weight="normal" text-decoration="none" x="416" y="500.5"></text></g></g><g transform="translate(-389,-102) scale(1,1)"><path fill="none" stroke="#000000" d="M 469 240 L 469 187" stroke-miterlimit="10"/></g><g transform="translate(-389,-102) scale(1,1)"><path fill="none" stroke="#000000" d="M 476 194 L 462 194" stroke-miterlimit="10"/></g><g transform="translate(-389,-102) scale(1,1)"><path fill="none" stroke="#000000" d="M 476 201 L 462 201" stroke-miterlimit="10"/></g><g transform="translate(-389,-102) scale(1,1)"><path fill="none" stroke="#000000" d="M 462 233 L 476 233" stroke-miterlimit="10"/></g><g transform="translate(-389,-102) scale(1,1)"><path fill="none" stroke="#000000" d="M 462 226 L 476 226" stroke-miterlimit="10"/></g><g transform="translate(-389,-102) scale(1,1)"><g><path fill="none" stroke="none"/><text fill="#000000" stroke="none" font-family="Arial" font-size="13px" font-style="normal" font-weight="normal" text-decoration="none" x="479.5" y="235.5">belongsTo</text></g></g><g transform="translate(-389,-102) scale(1,1)"><g><path fill="none" stroke="none"/><text fill="#000000" stroke="none" font-family="Arial" font-size="13px" font-style="normal" font-weight="normal" text-decoration="none" x="453.5" y="220.5"></text></g></g><g transform="translate(-389,-102) scale(1,1)"><g><path fill="none" stroke="none"/><text fill="#000000" stroke="none" font-family="Arial" font-size="13px" font-style="normal" font-weight="normal" text-decoration="none" x="453.5" y="218.5"></text></g></g><g transform="translate(-389,-102) scale(1,1)"><path fill="none" stroke="#000000" d="M 469 400 L 469 330" stroke-miterlimit="10"/></g><g transform="translate(-389,-102) scale(1,1)"><path fill="none" stroke="#000000" d="M 469 344 L 476 330" stroke-miterlimit="10"/></g><g transform="translate(-389,-102) scale(1,1)"><path fill="none" stroke="#000000" d="M 469 344 L 462 330" stroke-miterlimit="10"/></g><g transform="translate(-389,-102) scale(1,1)"><path fill="#FFFFFF" stroke="none" d="M 462 352 C 462 348.1340064 465.1340064 345 469 345 C 472.8659936 345 476 348.1340064 476 352 C 476 355.8659936 472.8659936 359 469 359 C 465.1340064 359 462 355.8659936 462 352 Z"/></g><g transform="translate(-389,-102) scale(1,1)"><path fill="none" stroke="#000000" d="M 462 352 C 462 348.1340064 465.1340064 345 469 345 C 472.8659936 345 476 348.1340064 476 352 C 476 355.8659936 472.8659936 359 469 359 C 465.1340064 359 462 355.8659936 462 352 Z" stroke-miterlimit="10"/></g><g transform="translate(-389,-102) scale(1,1)"><path fill="none" stroke="#000000" d="M 469 386 L 462 400" stroke-miterlimit="10"/></g><g transform="translate(-389,-102) scale(1,1)"><path fill="none" stroke="#000000" d="M 469 386 L 476 400" stroke-miterlimit="10"/></g><g transform="translate(-389,-102) scale(1,1)"><path fill="#FFFFFF" stroke="none" d="M 462 378 C 462 374.1340064 465.1340064 371 469 371 C 472.8659936 371 476 374.1340064 476 378 C 476 381.8659936 472.8659936 385 469 385 C 465.1340064 385 462 381.8659936 462 378 Z"/></g><g transform="translate(-389,-102) scale(1,1)"><path fill="none" stroke="#000000" d="M 462 378 C 462 374.1340064 465.1340064 371 469 371 C 472.8659936 371 476 374.1340064 476 378 C 476 381.8659936 472.8659936 385 469 385 C 465.1340064 385 462 381.8659936 462 378 Z" stroke-miterlimit="10"/></g><g transform="translate(-389,-102) scale(1,1)"><g><path fill="none" stroke="none"/><text fill="#000000" stroke="none" font-family="Arial" font-size="13px" font-style="normal" font-weight="normal" text-decoration="none" x="480.5" y="395.5">hasMany</text></g></g><g transform="translate(-389,-102) scale(1,1)"><g><path fill="none" stroke="none"/><text fill="#000000" stroke="none" font-family="Arial" font-size="13px" font-style="normal" font-weight="normal" text-decoration="none" x="453.5" y="380.5"></text></g></g><g transform="translate(-389,-102) scale(1,1)"><g><path fill="none" stroke="none"/><text fill="#000000" stroke="none" font-family="Arial" font-size="13px" font-style="normal" font-weight="normal" text-decoration="none" x="453.5" y="361.5"></text></g></g><g transform="translate(-389,-102) scale(1,1)"><path fill="none" stroke="#000000" d="M 469 576 L 469 505" stroke-miterlimit="10"/></g><g transform="translate(-389,-102) scale(1,1)"><path fill="none" stroke="#000000" d="M 469 519 L 476 505" stroke-miterlimit="10"/></g><g transform="translate(-389,-102) scale(1,1)"><path fill="none" stroke="#000000" d="M 469 519 L 462 505" stroke-miterlimit="10"/></g><g transform="translate(-389,-102) scale(1,1)"><path fill="#FFFFFF" stroke="none" d="M 462 527 C 462 523.1340064 465.1340064 520 469 520 C 472.8659936 520 476 523.1340064 476 527 C 476 530.8659936 472.8659936 534 469 534 C 465.1340064 534 462 530.8659936 462 527 Z"/></g><g transform="translate(-389,-102) scale(1,1)"><path fill="none" stroke="#000000" d="M 462 527 C 462 523.1340064 465.1340064 520 469 520 C 472.8659936 520 476 523.1340064 476 527 C 476 530.8659936 472.8659936 534 469 534 C 465.1340064 534 462 530.8659936 462 527 Z" stroke-miterlimit="10"/></g><g transform="translate(-389,-102) scale(1,1)"><path fill="none" stroke="#000000" d="M 469 562 L 462 576" stroke-miterlimit="10"/></g><g transform="translate(-389,-102) scale(1,1)"><path fill="none" stroke="#000000" d="M 469 562 L 476 576" stroke-miterlimit="10"/></g><g transform="translate(-389,-102) scale(1,1)"><path fill="#FFFFFF" stroke="none" d="M 462 554 C 462 550.1340064 465.1340064 547 469 547 C 472.8659936 547 476 550.1340064 476 554 C 476 557.8659936 472.8659936 561 469 561 C 465.1340064 561 462 557.8659936 462 554 Z"/></g><g transform="translate(-389,-102) scale(1,1)"><path fill="none" stroke="#000000" d="M 462 554 C 462 550.1340064 465.1340064 547 469 547 C 472.8659936 547 476 550.1340064 476 554 C 476 557.8659936 472.8659936 561 469 561 C 465.1340064 561 462 557.8659936 462 554 Z" stroke-miterlimit="10"/></g><g transform="translate(-389,-102) scale(1,1)"><g><path fill="none" stroke="none"/><text fill="#000000" stroke="none" font-family="Arial" font-size="13px" font-style="normal" font-weight="normal" text-decoration="none" x="477.5" y="523.5">hasMany</text></g></g><g transform="translate(-389,-102) scale(1,1)"><g><path fill="none" stroke="none"/><text fill="#000000" stroke="none" font-family="Arial" font-size="13px" font-style="normal" font-weight="normal" text-decoration="none" x="453.5" y="556.5"></text></g></g><g transform="translate(-389,-102) scale(1,1)"><g><path fill="none" stroke="none"/><text fill="#000000" stroke="none" font-family="Arial" font-size="13px" font-style="normal" font-weight="normal" text-decoration="none" x="453.5" y="536.5"></text></g></g></g></svg>