<svg version="1.1" xmlns="http://www.w3.org/2000/svg" xmlns:xlink="http://www.w3.org/1999/xlink" width="748" height="484"><defs/><g><text fill="#eeeeee" stroke="none" font-family="Arial" font-size="24px" font-style="normal" font-weight="normal" text-decoration="none" x="0" y="0">UNREGISTERED</text><text fill="#eeeeee" stroke="none" font-family="Arial" font-size="24px" font-style="normal" font-weight="normal" text-decoration="none" x="0" y="30">UNREGISTERED</text><text fill="#eeeeee" stroke="none" font-family="Arial" font-size="24px" font-style="normal" font-weight="normal" text-decoration="none" x="0" y="60">UNREGISTERED</text><text fill="#eeeeee" stroke="none" font-family="Arial" font-size="24px" font-style="normal" font-weight="normal" text-decoration="none" x="0" y="90">UNREGISTERED</text><text fill="#eeeeee" stroke="none" font-family="Arial" font-size="24px" font-style="normal" font-weight="normal" text-decoration="none" x="0" y="120">UNREGISTERED</text><text fill="#eeeeee" stroke="none" font-family="Arial" font-size="24px" font-style="normal" font-weight="normal" text-decoration="none" x="0" y="150">UNREGISTERED</text><text fill="#eeeeee" stroke="none" font-family="Arial" font-size="24px" font-style="normal" font-weight="normal" text-decoration="none" x="0" y="180">UNREGISTERED</text><text fill="#eeeeee" stroke="none" font-family="Arial" font-size="24px" font-style="normal" font-weight="normal" text-decoration="none" x="0" y="210">UNREGISTERED</text><text fill="#eeeeee" stroke="none" font-family="Arial" font-size="24px" font-style="normal" font-weight="normal" text-decoration="none" x="0" y="240">UNREGISTERED</text><text fill="#eeeeee" stroke="none" font-family="Arial" font-size="24px" font-style="normal" font-weight="normal" text-decoration="none" x="0" y="270">UNREGISTERED</text><text fill="#eeeeee" stroke="none" font-family="Arial" font-size="24px" font-style="normal" font-weight="normal" text-decoration="none" x="0" y="300">UNREGISTERED</text><text fill="#eeeeee" stroke="none" font-family="Arial" font-size="24px" font-style="normal" font-weight="normal" text-decoration="none" x="0" y="330">UNREGISTERED</text><text fill="#eeeeee" stroke="none" font-family="Arial" font-size="24px" font-style="normal" font-weight="normal" text-decoration="none" x="0" y="360">UNREGISTERED</text><text fill="#eeeeee" stroke="none" font-family="Arial" font-size="24px" font-style="normal" font-weight="normal" text-decoration="none" x="0" y="390">UNREGISTERED</text><text fill="#eeeeee" stroke="none" font-family="Arial" font-size="24px" font-style="normal" font-weight="normal" text-decoration="none" x="0" y="420">UNREGISTERED</text><text fill="#eeeeee" stroke="none" font-family="Arial" font-size="24px" font-style="normal" font-weight="normal" text-decoration="none" x="0" y="450">UNREGISTERED</text><text fill="#eeeeee" stroke="none" font-family="Arial" font-size="24px" font-style="normal" font-weight="normal" text-decoration="none" x="0" y="480">UNREGISTERED</text><text fill="#eeeeee" stroke="none" font-family="Arial" font-size="24px" font-style="normal" font-weight="normal" text-decoration="none" x="200" y="0">UNREGISTERED</text><text fill="#eeeeee" stroke="none" font-family="Arial" font-size="24px" font-style="normal" font-weight="normal" text-decoration="none" x="200" y="30">UNREGISTERED</text><text fill="#eeeeee" stroke="none" font-family="Arial" font-size="24px" font-style="normal" font-weight="normal" text-decoration="none" x="200" y="60">UNREGISTERED</text><text fill="#eeeeee" stroke="none" font-family="Arial" font-size="24px" font-style="normal" font-weight="normal" text-decoration="none" x="200" y="90">UNREGISTERED</text><text fill="#eeeeee" stroke="none" font-family="Arial" font-size="24px" font-style="normal" font-weight="normal" text-decoration="none" x="200" y="120">UNREGISTERED</text><text fill="#eeeeee" stroke="none" font-family="Arial" font-size="24px" font-style="normal" font-weight="normal" text-decoration="none" x="200" y="150">UNREGISTERED</text><text fill="#eeeeee" stroke="none" font-family="Arial" font-size="24px" font-style="normal" font-weight="normal" text-decoration="none" x="200" y="180">UNREGISTERED</text><text fill="#eeeeee" stroke="none" font-family="Arial" font-size="24px" font-style="normal" font-weight="normal" text-decoration="none" x="200" y="210">UNREGISTERED</text><text fill="#eeeeee" stroke="none" font-family="Arial" font-size="24px" font-style="normal" font-weight="normal" text-decoration="none" x="200" y="240">UNREGISTERED</text><text fill="#eeeeee" stroke="none" font-family="Arial" font-size="24px" font-style="normal" font-weight="normal" text-decoration="none" x="200" y="270">UNREGISTERED</text><text fill="#eeeeee" stroke="none" font-family="Arial" font-size="24px" font-style="normal" font-weight="normal" text-decoration="none" x="200" y="300">UNREGISTERED</text><text fill="#eeeeee" stroke="none" font-family="Arial" font-size="24px" font-style="normal" font-weight="normal" text-decoration="none" x="200" y="330">UNREGISTERED</text><text fill="#eeeeee" stroke="none" font-family="Arial" font-size="24px" font-style="normal" font-weight="normal" text-decoration="none" x="200" y="360">UNREGISTERED</text><text fill="#eeeeee" stroke="none" font-family="Arial" font-size="24px" font-style="normal" font-weight="normal" text-decoration="none" x="200" y="390">UNREGISTERED</text><text fill="#eeeeee" stroke="none" font-family="Arial" font-size="24px" font-style="normal" font-weight="normal" text-decoration="none" x="200" y="420">UNREGISTERED</text><text fill="#eeeeee" stroke="none" font-family="Arial" font-size="24px" font-style="normal" font-weight="normal" text-decoration="none" x="200" y="450">UNREGISTERED</text><text fill="#eeeeee" stroke="none" font-family="Arial" font-size="24px" font-style="normal" font-weight="normal" text-decoration="none" x="200" y="480">UNREGISTERED</text><text fill="#eeeeee" stroke="none" font-family="Arial" font-size="24px" font-style="normal" font-weight="normal" text-decoration="none" x="400" y="0">UNREGISTERED</text><text fill="#eeeeee" stroke="none" font-family="Arial" font-size="24px" font-style="normal" font-weight="normal" text-decoration="none" x="400" y="30">UNREGISTERED</text><text fill="#eeeeee" stroke="none" font-family="Arial" font-size="24px" font-style="normal" font-weight="normal" text-decoration="none" x="400" y="60">UNREGISTERED</text><text fill="#eeeeee" stroke="none" font-family="Arial" font-size="24px" font-style="normal" font-weight="normal" text-decoration="none" x="400" y="90">UNREGISTERED</text><text fill="#eeeeee" stroke="none" font-family="Arial" font-size="24px" font-style="normal" font-weight="normal" text-decoration="none" x="400" y="120">UNREGISTERED</text><text fill="#eeeeee" stroke="none" font-family="Arial" font-size="24px" font-style="normal" font-weight="normal" text-decoration="none" x="400" y="150">UNREGISTERED</text><text fill="#eeeeee" stroke="none" font-family="Arial" font-size="24px" font-style="normal" font-weight="normal" text-decoration="none" x="400" y="180">UNREGISTERED</text><text fill="#eeeeee" stroke="none" font-family="Arial" font-size="24px" font-style="normal" font-weight="normal" text-decoration="none" x="400" y="210">UNREGISTERED</text><text fill="#eeeeee" stroke="none" font-family="Arial" font-size="24px" font-style="normal" font-weight="normal" text-decoration="none" x="400" y="240">UNREGISTERED</text><text fill="#eeeeee" stroke="none" font-family="Arial" font-size="24px" font-style="normal" font-weight="normal" text-decoration="none" x="400" y="270">UNREGISTERED</text><text fill="#eeeeee" stroke="none" font-family="Arial" font-size="24px" font-style="normal" font-weight="normal" text-decoration="none" x="400" y="300">UNREGISTERED</text><text fill="#eeeeee" stroke="none" font-family="Arial" font-size="24px" font-style="normal" font-weight="normal" text-decoration="none" x="400" y="330">UNREGISTERED</text><text fill="#eeeeee" stroke="none" font-family="Arial" font-size="24px" font-style="normal" font-weight="normal" text-decoration="none" x="400" y="360">UNREGISTERED</text><text fill="#eeeeee" stroke="none" font-family="Arial" font-size="24px" font-style="normal" font-weight="normal" text-decoration="none" x="400" y="390">UNREGISTERED</text><text fill="#eeeeee" stroke="none" font-family="Arial" font-size="24px" font-style="normal" font-weight="normal" text-decoration="none" x="400" y="420">UNREGISTERED</text><text fill="#eeeeee" stroke="none" font-family="Arial" font-size="24px" font-style="normal" font-weight="normal" text-decoration="none" x="400" y="450">UNREGISTERED</text><text fill="#eeeeee" stroke="none" font-family="Arial" font-size="24px" font-style="normal" font-weight="normal" text-decoration="none" x="400" y="480">UNREGISTERED</text><text fill="#eeeeee" stroke="none" font-family="Arial" font-size="24px" font-style="normal" font-weight="normal" text-decoration="none" x="600" y="0">UNREGISTERED</text><text fill="#eeeeee" stroke="none" font-family="Arial" font-size="24px" font-style="normal" font-weight="normal" text-decoration="none" x="600" y="30">UNREGISTERED</text><text fill="#eeeeee" stroke="none" font-family="Arial" font-size="24px" font-style="normal" font-weight="normal" text-decoration="none" x="600" y="60">UNREGISTERED</text><text fill="#eeeeee" stroke="none" font-family="Arial" font-size="24px" font-style="normal" font-weight="normal" text-decoration="none" x="600" y="90">UNREGISTERED</text><text fill="#eeeeee" stroke="none" font-family="Arial" font-size="24px" font-style="normal" font-weight="normal" text-decoration="none" x="600" y="120">UNREGISTERED</text><text fill="#eeeeee" stroke="none" font-family="Arial" font-size="24px" font-style="normal" font-weight="normal" text-decoration="none" x="600" y="150">UNREGISTERED</text><text fill="#eeeeee" stroke="none" font-family="Arial" font-size="24px" font-style="normal" font-weight="normal" text-decoration="none" x="600" y="180">UNREGISTERED</text><text fill="#eeeeee" stroke="none" font-family="Arial" font-size="24px" font-style="normal" font-weight="normal" text-decoration="none" x="600" y="210">UNREGISTERED</text><text fill="#eeeeee" stroke="none" font-family="Arial" font-size="24px" font-style="normal" font-weight="normal" text-decoration="none" x="600" y="240">UNREGISTERED</text><text fill="#eeeeee" stroke="none" font-family="Arial" font-size="24px" font-style="normal" font-weight="normal" text-decoration="none" x="600" y="270">UNREGISTERED</text><text fill="#eeeeee" stroke="none" font-family="Arial" font-size="24px" font-style="normal" font-weight="normal" text-decoration="none" x="600" y="300">UNREGISTERED</text><text fill="#eeeeee" stroke="none" font-family="Arial" font-size="24px" font-style="normal" font-weight="normal" text-decoration="none" x="600" y="330">UNREGISTERED</text><text fill="#eeeeee" stroke="none" font-family="Arial" font-size="24px" font-style="normal" font-weight="normal" text-decoration="none" x="600" y="360">UNREGISTERED</text><text fill="#eeeeee" stroke="none" font-family="Arial" font-size="24px" font-style="normal" font-weight="normal" text-decoration="none" x="600" y="390">UNREGISTERED</text><text fill="#eeeeee" stroke="none" font-family="Arial" font-size="24px" font-style="normal" font-weight="normal" text-decoration="none" x="600" y="420">UNREGISTERED</text><text fill="#eeeeee" stroke="none" font-family="Arial" font-size="24px" font-style="normal" font-weight="normal" text-decoration="none" x="600" y="450">UNREGISTERED</text><text fill="#eeeeee" stroke="none" font-family="Arial" font-size="24px" font-style="normal" font-weight="normal" text-decoration="none" x="600" y="480">UNREGISTERED</text><g transform="translate(-118,-61) scale(1,1)"><rect fill="#C0C0C0" stroke="none" x="254" y="78" width="609" height="464" opacity="0.2"/></g><g transform="translate(-118,-61) scale(1,1)"><rect fill="#ffffff" stroke="none" x="247" y="71" width="609" height="464"/></g><g transform="translate(-118,-61) scale(1,1)"><path fill="none" stroke="#000000" d="M 247 71 L 856 71 L 856 535 L 247 535 L 247 71 Z Z" stroke-miterlimit="10"/></g><g transform="translate(-118,-61) scale(1,1)"><g><path fill="none" stroke="none"/><text fill="#000000" stroke="none" font-family="Arial" font-size="13px" font-style="normal" font-weight="bold" text-decoration="none" x="500.461669921875" y="90.5">WorkTimeTracker</text></g></g><g transform="translate(-118,-61) scale(1,1)"><path fill="none" stroke="#000000" d="M 288 104 L 584 104 L 584 520 L 288 520 L 288 104" stroke-miterlimit="10"/></g><g transform="translate(-118,-61) scale(1,1)"><path fill="#ffffff" stroke="none" d="M 288 104 L 288 126 L 361.7890625 126 L 372.7890625 115 L 372.7890625 104 L 288 104"/></g><g transform="translate(-118,-61) scale(1,1)"><path fill="none" stroke="#000000" d="M 288 104 L 288 126 L 361.7890625 126 L 372.7890625 115 L 372.7890625 104 L 288 104 L 288 104" stroke-miterlimit="10"/></g><g transform="translate(-118,-61) scale(1,1)"><g><path fill="none" stroke="none"/><text fill="#000000" stroke="none" font-family="Arial" font-size="13px" font-style="normal" font-weight="normal" text-decoration="none" x="299" y="121.5">UserStory</text></g></g><g transform="translate(-118,-61) scale(1,1)"><g><path fill="none" stroke="none"/><text fill="#000000" stroke="none" font-family="Arial" font-size="13px" font-style="normal" font-weight="bold" text-decoration="none" x="293" y="121.5"></text></g></g><g transform="translate(-118,-61) scale(1,1)"><path fill="none" stroke="#000000" d="M 376 136 L 752 136 L 752 504 L 376 504 L 376 136" stroke-miterlimit="10"/></g><g transform="translate(-118,-61) scale(1,1)"><path fill="#ffffff" stroke="none" d="M 376 136 L 376 158 L 418.72998046875 158 L 429.72998046875 147 L 429.72998046875 136 L 376 136"/></g><g transform="translate(-118,-61) scale(1,1)"><path fill="none" stroke="#000000" d="M 376 136 L 376 158 L 418.72998046875 158 L 429.72998046875 147 L 429.72998046875 136 L 376 136 L 376 136" stroke-miterlimit="10"/></g><g transform="translate(-118,-61) scale(1,1)"><g><path fill="none" stroke="none"/><text fill="#000000" stroke="none" font-family="Arial" font-size="13px" font-style="normal" font-weight="normal" text-decoration="none" x="387" y="153.5">Task</text></g></g><g transform="translate(-118,-61) scale(1,1)"><g><path fill="none" stroke="none"/><text fill="#000000" stroke="none" font-family="Arial" font-size="13px" font-style="normal" font-weight="bold" text-decoration="none" x="381" y="153.5"></text></g></g><g transform="translate(-118,-61) scale(1,1)"><path fill="#ffffff" stroke="none" d="M 144.40935031960228 273.68 C 144.40935031960228 268.886167936 148.29519264454774 265 153.088623046875 265 C 157.88205344920226 265 161.76789577414772 268.886167936 161.76789577414772 273.68 C 161.76789577414772 278.473832064 157.88205344920226 282.36 153.088623046875 282.36 C 148.29519264454774 282.36 144.40935031960228 278.473832064 144.40935031960228 273.68 Z"/></g><g transform="translate(-118,-61) scale(1,1)"><path fill="none" stroke="#000000" d="M 144.40935031960228 273.68 C 144.40935031960228 268.886167936 148.29519264454774 265 153.088623046875 265 C 157.88205344920226 265 161.76789577414772 268.886167936 161.76789577414772 273.68 C 161.76789577414772 278.473832064 157.88205344920226 282.36 153.088623046875 282.36 C 148.29519264454774 282.36 144.40935031960228 278.473832064 144.40935031960228 273.68 Z" stroke-miterlimit="10"/></g><g transform="translate(-118,-61) scale(1,1)"><path fill="none" stroke="#000000" d="M 153.088623046875 282.36 L 153.088623046875 299.64" stroke-miterlimit="10"/></g><g transform="translate(-118,-61) scale(1,1)"><path fill="none" stroke="#000000" d="M 143.89880486505683 288.84 L 162.27844122869317 288.84" stroke-miterlimit="10"/></g><g transform="translate(-118,-61) scale(1,1)"><path fill="none" stroke="#000000" d="M 153.088623046875 299.64 L 140.32498668323865 317" stroke-miterlimit="10"/></g><g transform="translate(-118,-61) scale(1,1)"><path fill="none" stroke="#000000" d="M 153.088623046875 299.64 L 165.85225941051135 317" stroke-miterlimit="10"/></g><g transform="translate(-118,-61) scale(1,1)"><g><path fill="none" stroke="none"/><text fill="#000000" stroke="none" font-family="Arial" font-size="13px" font-style="normal" font-weight="bold" text-decoration="none" x="139.364990234375" y="337.5">User</text></g></g><g transform="translate(-118,-61) scale(1,1)"><path fill="#C0C0C0" stroke="none" d="M 428 248 C 428 238.6111584 450.6096176 231 478.5 231 C 506.3903824 231 529 238.6111584 529 248 C 529 257.3888416 506.3903824 265 478.5 265 C 450.6096176 265 428 257.3888416 428 248 Z" opacity="0.2"/></g><g transform="translate(-118,-61) scale(1,1)"><path fill="#ffffff" stroke="none" d="M 421 241 C 421 231.6111584 443.6096176 224 471.5 224 C 499.3903824 224 522 231.6111584 522 241 C 522 250.3888416 499.3903824 258 471.5 258 C 443.6096176 258 421 250.3888416 421 241 Z"/></g><g transform="translate(-118,-61) scale(1,1)"><path fill="none" stroke="#000000" d="M 421 241 C 421 231.6111584 443.6096176 224 471.5 224 C 499.3903824 224 522 231.6111584 522 241 C 522 250.3888416 499.3903824 258 471.5 258 C 443.6096176 258 421 250.3888416 421 241 Z" stroke-miterlimit="10"/></g><g transform="translate(-118,-61) scale(1,1)"><g><path fill="none" stroke="none"/><text fill="#000000" stroke="none" font-family="Arial" font-size="13px" font-style="normal" font-weight="bold" text-decoration="none" x="451.990478515625" y="248">Create</text></g></g><g transform="translate(-118,-61) scale(1,1)"><path fill="#C0C0C0" stroke="none" d="M 428 344 C 428 334.6111584 450.6096176 327 478.5 327 C 506.3903824 327 529 334.6111584 529 344 C 529 353.3888416 506.3903824 361 478.5 361 C 450.6096176 361 428 353.3888416 428 344 Z" opacity="0.2"/></g><g transform="translate(-118,-61) scale(1,1)"><path fill="#ffffff" stroke="none" d="M 421 337 C 421 327.6111584 443.6096176 320 471.5 320 C 499.3903824 320 522 327.6111584 522 337 C 522 346.3888416 499.3903824 354 471.5 354 C 443.6096176 354 421 346.3888416 421 337 Z"/></g><g transform="translate(-118,-61) scale(1,1)"><path fill="none" stroke="#000000" d="M 421 337 C 421 327.6111584 443.6096176 320 471.5 320 C 499.3903824 320 522 327.6111584 522 337 C 522 346.3888416 499.3903824 354 471.5 354 C 443.6096176 354 421 346.3888416 421 337 Z" stroke-miterlimit="10"/></g><g transform="translate(-118,-61) scale(1,1)"><g><path fill="none" stroke="none"/><text fill="#000000" stroke="none" font-family="Arial" font-size="13px" font-style="normal" font-weight="bold" text-decoration="none" x="450.5400390625" y="344">Update</text></g></g><g transform="translate(-118,-61) scale(1,1)"><path fill="#C0C0C0" stroke="none" d="M 428 400 C 428 390.6111584 450.6096176 383 478.5 383 C 506.3903824 383 529 390.6111584 529 400 C 529 409.3888416 506.3903824 417 478.5 417 C 450.6096176 417 428 409.3888416 428 400 Z" opacity="0.2"/></g><g transform="translate(-118,-61) scale(1,1)"><path fill="#ffffff" stroke="none" d="M 421 393 C 421 383.6111584 443.6096176 376 471.5 376 C 499.3903824 376 522 383.6111584 522 393 C 522 402.3888416 499.3903824 410 471.5 410 C 443.6096176 410 421 402.3888416 421 393 Z"/></g><g transform="translate(-118,-61) scale(1,1)"><path fill="none" stroke="#000000" d="M 421 393 C 421 383.6111584 443.6096176 376 471.5 376 C 499.3903824 376 522 383.6111584 522 393 C 522 402.3888416 499.3903824 410 471.5 410 C 443.6096176 410 421 402.3888416 421 393 Z" stroke-miterlimit="10"/></g><g transform="translate(-118,-61) scale(1,1)"><g><path fill="none" stroke="none"/><text fill="#000000" stroke="none" font-family="Arial" font-size="13px" font-style="normal" font-weight="bold" text-decoration="none" x="452.7109375" y="400">Delete</text></g></g><g transform="translate(-118,-61) scale(1,1)"><path fill="#C0C0C0" stroke="none" d="M 428 192 C 428 182.6111584 450.6096176 175 478.5 175 C 506.3903824 175 529 182.6111584 529 192 C 529 201.3888416 506.3903824 209 478.5 209 C 450.6096176 209 428 201.3888416 428 192 Z" opacity="0.2"/></g><g transform="translate(-118,-61) scale(1,1)"><path fill="#ffffff" stroke="none" d="M 421 185 C 421 175.6111584 443.6096176 168 471.5 168 C 499.3903824 168 522 175.6111584 522 185 C 522 194.3888416 499.3903824 202 471.5 202 C 443.6096176 202 421 194.3888416 421 185 Z"/></g><g transform="translate(-118,-61) scale(1,1)"><path fill="none" stroke="#000000" d="M 421 185 C 421 175.6111584 443.6096176 168 471.5 168 C 499.3903824 168 522 175.6111584 522 185 C 522 194.3888416 499.3903824 202 471.5 202 C 443.6096176 202 421 194.3888416 421 185 Z" stroke-miterlimit="10"/></g><g transform="translate(-118,-61) scale(1,1)"><g><path fill="none" stroke="none"/><text fill="#000000" stroke="none" font-family="Arial" font-size="13px" font-style="normal" font-weight="bold" text-decoration="none" x="461.023193359375" y="192">Get</text></g></g><g transform="translate(-118,-61) scale(1,1)"><path fill="#C0C0C0" stroke="none" d="M 623 280 C 623 270.6111584 645.6096176 263 673.5 263 C 701.3903824 263 724 270.6111584 724 280 C 724 289.3888416 701.3903824 297 673.5 297 C 645.6096176 297 623 289.3888416 623 280 Z" opacity="0.2"/></g><g transform="translate(-118,-61) scale(1,1)"><path fill="#ffffff" stroke="none" d="M 616 273 C 616 263.6111584 638.6096176 256 666.5 256 C 694.3903824 256 717 263.6111584 717 273 C 717 282.3888416 694.3903824 290 666.5 290 C 638.6096176 290 616 282.3888416 616 273 Z"/></g><g transform="translate(-118,-61) scale(1,1)"><path fill="none" stroke="#000000" d="M 616 273 C 616 263.6111584 638.6096176 256 666.5 256 C 694.3903824 256 717 263.6111584 717 273 C 717 282.3888416 694.3903824 290 666.5 290 C 638.6096176 290 616 282.3888416 616 273 Z" stroke-miterlimit="10"/></g><g transform="translate(-118,-61) scale(1,1)"><g><path fill="none" stroke="none"/><text fill="#000000" stroke="none" font-family="Arial" font-size="13px" font-style="normal" font-weight="bold" text-decoration="none" x="650.4912109375" y="280">Track</text></g></g><g transform="translate(-118,-61) scale(1,1)"><path fill="#C0C0C0" stroke="none" d="M 428 472 C 428 462.6111584 450.6096176 455 478.5 455 C 506.3903824 455 529 462.6111584 529 472 C 529 481.3888416 506.3903824 489 478.5 489 C 450.6096176 489 428 481.3888416 428 472 Z" opacity="0.2"/></g><g transform="translate(-118,-61) scale(1,1)"><path fill="#ffffff" stroke="none" d="M 421 465 C 421 455.6111584 443.6096176 448 471.5 448 C 499.3903824 448 522 455.6111584 522 465 C 522 474.3888416 499.3903824 482 471.5 482 C 443.6096176 482 421 474.3888416 421 465 Z"/></g><g transform="translate(-118,-61) scale(1,1)"><path fill="none" stroke="#000000" d="M 421 465 C 421 455.6111584 443.6096176 448 471.5 448 C 499.3903824 448 522 455.6111584 522 465 C 522 474.3888416 499.3903824 482 471.5 482 C 443.6096176 482 421 474.3888416 421 465 Z" stroke-miterlimit="10"/></g><g transform="translate(-118,-61) scale(1,1)"><g><path fill="none" stroke="none"/><text fill="#000000" stroke="none" font-family="Arial" font-size="13px" font-style="normal" font-weight="bold" text-decoration="none" x="452.714111328125" y="472">Export</text></g></g><g transform="translate(-118,-61) scale(1,1)"><path fill="none" stroke="#000000" d="M 179 301 L 615 276" stroke-miterlimit="10"/></g><g transform="translate(-118,-61) scale(1,1)"><path fill="none" stroke="#000000" d="M 605.0949661583861 280.78438131804774 L 615 276 L 604.6130149289388 272.3791518764864" stroke-miterlimit="10"/></g><g transform="translate(-118,-61) scale(1,1)"><path fill="none" stroke="#000000" d="M 179 298 L 420 251" stroke-miterlimit="10"/></g><g transform="translate(-118,-61) scale(1,1)"><path fill="none" stroke="#000000" d="M 410.8310039822023 257.07696569231797 L 420 251 L 409.21947708906674 248.8136043892188" stroke-miterlimit="10"/></g><g transform="translate(-118,-61) scale(1,1)"><path fill="none" stroke="#000000" d="M 179 306 L 420 332" stroke-miterlimit="10"/></g><g transform="translate(-118,-61) scale(1,1)"><path fill="none" stroke="#000000" d="M 409.444436262796 335.09516949290725 L 420 332 L 410.3474739648198 326.72470463953266" stroke-miterlimit="10"/></g><g transform="translate(-118,-61) scale(1,1)"><path fill="none" stroke="#000000" d="M 179 316 L 436 447" stroke-miterlimit="10"/></g><g transform="translate(-118,-61) scale(1,1)"><path fill="none" stroke="#000000" d="M 425.0340479842428 446.1351899699294 L 436 447 L 428.85741400419283 438.63438793079075" stroke-miterlimit="10"/></g><g transform="translate(-118,-61) scale(1,1)"><path fill="none" stroke="#000000" d="M 179 310 L 420 379" stroke-miterlimit="10"/></g><g transform="translate(-118,-61) scale(1,1)"><path fill="none" stroke="#000000" d="M 409.07121489937794 380.24966244419096 L 420 379 L 411.3885371567381 372.1558267337012" stroke-miterlimit="10"/></g></g></svg>