<?xml version="1.0" encoding="UTF-8" standalone="no"?>
<!-- Created with Inkscape (http://www.inkscape.org/) -->

<svg
   xmlns:dc="http://purl.org/dc/elements/1.1/"
   xmlns:cc="http://creativecommons.org/ns#"
   xmlns:rdf="http://www.w3.org/1999/02/22-rdf-syntax-ns#"
   xmlns:svg="http://www.w3.org/2000/svg"
   xmlns="http://www.w3.org/2000/svg"
   xmlns:sodipodi="http://sodipodi.sourceforge.net/DTD/sodipodi-0.dtd"
   xmlns:inkscape="http://www.inkscape.org/namespaces/inkscape"
   width="22.979441mm"
   height="22.979441mm"
   viewBox="0 0 22.979441 22.979441"
   version="1.1"
   id="svg8"
   inkscape:version="0.92.4 (5da689c313, 2019-01-14)"
   sodipodi:docname="logo.svg">
  <defs
     id="defs2" />
  <sodipodi:namedview
     id="base"
     pagecolor="#ffffff"
     bordercolor="#666666"
     borderopacity="1.0"
     inkscape:pageopacity="0.0"
     inkscape:pageshadow="2"
     inkscape:zoom="4.5335937"
     inkscape:cx="87.509879"
     inkscape:cy="28.998373"
     inkscape:document-units="mm"
     inkscape:current-layer="layer1"
     showgrid="false"
     fit-margin-top="0"
     fit-margin-left="0"
     fit-margin-right="0"
     fit-margin-bottom="0"
     inkscape:window-width="1920"
     inkscape:window-height="1046"
     inkscape:window-x="-11"
     inkscape:window-y="-11"
     inkscape:window-maximized="1" />
  <metadata
     id="metadata5">
    <rdf:RDF>
      <cc:Work
         rdf:about="">
        <dc:format>image/svg+xml</dc:format>
        <dc:type
           rdf:resource="http://purl.org/dc/dcmitype/StillImage" />
        <dc:title></dc:title>
      </cc:Work>
    </rdf:RDF>
  </metadata>
  <g
     inkscape:label="Layer 1"
     inkscape:groupmode="layer"
     id="layer1"
     transform="translate(-18.857801,-92.219912)">
    <path
       style="opacity:0.97000002;fill:#0099ff;fill-opacity:1;stroke:none;stroke-width:1.67554462;stroke-miterlimit:4;stroke-dasharray:none;stroke-opacity:1"
       d="M 41.837241,103.70963 A 11.48972,11.48972 0 0 1 30.347521,115.19935 11.48972,11.48972 0 0 1 18.8578,103.70963 11.48972,11.48972 0 0 1 30.347521,92.219913 11.48972,11.48972 0 0 1 41.837241,103.70963 Z"
       id="path4893"
       inkscape:connector-curvature="0" />
    <g
       id="text4859"
       style="font-style:normal;font-variant:normal;font-weight:bold;font-stretch:normal;font-size:12.18803501px;line-height:1.25;font-family:'Times New Roman';-inkscape-font-specification:'Times New Roman, Bold';font-variant-ligatures:normal;font-variant-caps:normal;font-variant-numeric:normal;font-feature-settings:normal;text-align:start;letter-spacing:0px;word-spacing:0px;writing-mode:lr-tb;text-anchor:start;fill:#000000;fill-opacity:1;stroke:none;stroke-width:0.30470091"
       transform="matrix(1.458595,0,0,1.0997963,-85.211843,214.59615)"
       aria-label="W" />
    <g
       aria-label="T"
       style="font-style:normal;font-variant:normal;font-weight:bold;font-stretch:normal;font-size:10.58333302px;line-height:1.25;font-family:'Times New Roman';-inkscape-font-specification:'Times New Roman, Bold';font-variant-ligatures:normal;font-variant-caps:normal;font-variant-numeric:normal;font-feature-settings:normal;text-align:start;letter-spacing:0px;word-spacing:0px;writing-mode:lr-tb;text-anchor:start;fill:#000000;fill-opacity:1;stroke:none;stroke-width:0.26458335"
       id="text4863"
       transform="matrix(1.2665533,0,0,1.2665533,-85.162683,214.59615)" />
    <g
       aria-label="T"
       style="font-style:normal;font-variant:normal;font-weight:bold;font-stretch:normal;font-size:10.58333302px;line-height:1.25;font-family:'Times New Roman';-inkscape-font-specification:'Times New Roman, Bold';font-variant-ligatures:normal;font-variant-caps:normal;font-variant-numeric:normal;font-feature-settings:normal;text-align:start;letter-spacing:0px;word-spacing:0px;writing-mode:lr-tb;text-anchor:start;fill:#ffffff;fill-opacity:1;stroke:none;stroke-width:0.26458335"
       id="text4885"
       transform="matrix(1.2665533,0,0,1.2665533,-85.162683,214.59615)">
      <path
         id="path4862"
         style="font-style:normal;font-variant:normal;font-weight:bold;font-stretch:normal;font-size:10.58333302px;font-family:'Times New Roman';-inkscape-font-specification:'Times New Roman, Bold';font-variant-ligatures:normal;font-variant-caps:normal;font-variant-numeric:normal;font-feature-settings:normal;text-align:start;writing-mode:lr-tb;text-anchor:start;fill:#ffffff;stroke-width:0.26458335"
         d="m 97.435643,-86.949341 v 1.896525 h -0.186035 q -0.165364,-0.65629 -0.366902,-0.940511 -0.201539,-0.289388 -0.552938,-0.45992 -0.196371,-0.09302 -0.687297,-0.09302 h -0.521932 v 5.405354 q 0,0.537435 0.05684,0.671794 0.06201,0.134359 0.232544,0.237711 0.1757,0.09819 0.475423,0.09819 h 0.232544 v 0.191202 h -3.669026 v -0.191202 h 0.232544 q 0.304891,0 0.490926,-0.108521 0.134358,-0.07235 0.211873,-0.248047 0.05684,-0.124023 0.05684,-0.651123 v -5.405354 h -0.506429 q -0.707967,0 -1.028361,0.299723 -0.449585,0.418579 -0.568441,1.193725 h -0.19637 v -1.896525 z m -6.176239,0 v 1.896525 h -0.186035 q -0.165364,-0.65629 -0.366903,-0.940511 -0.201538,-0.289388 -0.552937,-0.45992 -0.196371,-0.09302 -0.687297,-0.09302 H 88.9443 v 5.405354 q 0,0.537435 0.05684,0.671794 0.06201,0.134359 0.232544,0.237711 0.1757,0.09819 0.475423,0.09819 h 0.232544 v 0.191202 h -3.669026 v -0.191202 h 0.232544 q 0.304891,0 0.490926,-0.108521 0.134358,-0.07235 0.211873,-0.248047 0.05684,-0.124023 0.05684,-0.651123 v -5.405354 h -0.506429 q -0.707967,0 -1.028361,0.299723 -0.449585,0.418579 -0.568441,1.193725 h -0.19637 v -1.896525 z m 6.83569,-7.149968 v 0.191208 q -0.260435,0.01554 -0.438627,0.108516 -0.178192,0.09302 -0.315262,0.284224 -0.04112,0.062 -0.431773,0.800981 l -2.912756,5.782593 h -0.267287 l -2.302789,-4.516521 -2.53581,4.516521 h -0.253581 l -3.05668,-5.720576 q -0.46604,-0.862998 -0.651087,-1.043864 -0.185045,-0.180866 -0.623672,-0.211874 v -0.191208 h 4.029882 v 0.191208 q -0.486601,0.01033 -0.651086,0.113691 -0.157632,0.09818 -0.157632,0.248041 0,0.196375 0.335824,0.831989 l 1.823042,3.400316 1.459804,-2.656176 -0.383799,-0.74414 q -0.315262,-0.609781 -0.4866,-0.811314 -0.171339,-0.206708 -0.397506,-0.294557 -0.219313,-0.08785 -0.651086,-0.08785 v -0.191208 h 4.502776 v 0.191208 q -0.472895,0.0052 -0.678501,0.05688 -0.143925,0.03621 -0.226167,0.124025 -0.08224,0.08266 -0.08224,0.191199 0,0.118858 0.308408,0.72864 l 1.692825,3.317632 1.514633,-3.002408 q 0.239873,-0.465082 0.294702,-0.635615 0.05483,-0.170533 0.05483,-0.315224 0,-0.211874 -0.191899,-0.330733 -0.191898,-0.124024 -0.733328,-0.134357 v -0.191208 z"
         inkscape:connector-curvature="0" />
    </g>
  </g>
</svg>
