<?xml version="1.0" encoding="utf-8"?>
<svg xmlns="http://www.w3.org/2000/svg" height="256" width="256" viewBox="0 0 256 256">
  <g>
    <path id="path1" transform="rotate(0,128,128) translate(0,34.4600067138672) scale(8,8)  " fill="#FFFFFF" d="M1.230957,19.693036L30.768982,19.693036C31.506958,19.693036,32,20.185041,32,20.923019L32,22.154038C32,22.893054,31.506958,23.384999,30.768982,23.384999L1.230957,23.384999C0.49194336,23.384999,0,22.893054,0,22.154038L0,20.923019C0,20.185041,0.49194336,19.693036,1.230957,19.693036z M1.230957,9.8470059L30.768982,9.8470059C31.506958,9.8470059,32,10.339011,32,11.076989L32,12.30801C32,13.045987,31.506958,13.53903,30.768982,13.53903L1.230957,13.53903C0.49194336,13.53903,0,13.047025,0,12.30801L0,11.076989C0,10.339011,0.49194336,9.8470059,1.230957,9.8470059z M1.230957,0L30.768982,0C31.506958,-6.3337211E-08,32,0.49298194,32,1.2309594L32,2.4619804C32,3.1999579,31.506958,3.6930011,30.768982,3.6930013L1.230957,3.6930013C0.49194336,3.6930011,0,3.1999579,0,2.4619804L0,1.2309594C0,0.49298194,0.49194336,-6.3337211E-08,1.230957,0z" />
  </g>
</svg>

