<?xml version="1.0" encoding="utf-8"?>
<svg xmlns="http://www.w3.org/2000/svg" height="256" width="256" viewBox="0 0 256 256">
  <g>
    <path id="path1" transform="rotate(0,128,128) translate(20.0000076293945,0) scale(8,8)  " fill="#FFFFFF" d="M13.499996,17.400024C14.799999,17.400024 15.900005,18.5 15.900005,19.800018 15.900005,21.100006 14.799999,22.200012 13.499996,22.200012 13.100002,22.200012 12.699992,22.100006 12.400004,21.900024L7.9999946,24.300018 7.4000033,23.400024 11.199992,20.400024 11.199992,20.300018 11.199992,19.800018C11.100001,18.5,12.199992,17.400024,13.499996,17.400024z M13.499996,11C8.6000003,11 4.6999906,15 4.6999906,19.800018 4.6999906,24.700012 8.6999911,28.600006 13.499996,28.600006 18.400006,28.600006 22.3,24.600006 22.3,19.800018 22.3,14.900024 18.400006,11 13.499996,11z M13.499996,7.6000061C20.199994,7.6000061 25.699996,13.100006 25.699996,19.800018 25.699996,26.5 20.199994,32 13.499996,32 6.7999972,32 1.2999959,26.5 1.2999959,19.800018 1.2999959,13.100006 6.7999972,7.6000061 13.499996,7.6000061z M23.999999,6.3000183L26.999999,9.3000183 24.499999,11.800018 21.499997,8.8000183z M2.9999934,6.3000183L5.4999937,8.8000183 2.5000011,11.800018 0,9.4000244z M9.7999982,0L17.199994,0 17.199994,4.3000183 15.900005,4.3000183 15.900005,6.3000183 11.100001,6.3000183 11.100001,4.3000183 9.7999982,4.3000183z" />
  </g>
</svg>

