<?xml version="1.0" encoding="utf-8"?>
<svg xmlns="http://www.w3.org/2000/svg" height="256" width="256" viewBox="0 0 256 256">
  <g>
    <path id="path1" transform="rotate(0,128,128) translate(26.0319916028972,0) scale(8.00000047683719,8.00000047683719)  " fill="#FFFFFF" d="M18.551998,14.302987L18.551998,28.304994 21.451992,28.304994 21.451992,14.302987z M11.295988,14.302987L11.295988,28.304994 14.196988,28.304994 14.196988,14.302987z M4.0390009,14.302987L4.0390009,28.304994 6.9400014,28.304994 6.9400014,14.302987z M0,11.068995L25.492001,11.068995 24.680996,31.999999 0.81100462,31.999999z M8.692015,1.358993L8.692015,3.2749924 16.800015,3.2749924 16.800015,1.358993z M6.9400014,0L18.551998,0 18.551998,3.2749924 25.492001,3.2749924 25.492001,7.7210044 0,7.7210044 0,3.2749924 6.9400014,3.2749924z" />
  </g>
</svg>

