<svg xmlns="http://www.w3.org/2000/svg" height="256" width="256"><path fill="#FFF" d="M128 139.2c10.4 0 19.2 8.8 19.2 19.2 0 10.4-8.8 19.2-19.2 19.2-3.2 0-6.4-.8-8.8-2.4L84 194.4l-4.8-7.2 30.4-24v-4.8c-.8-10.4 8-19.2 18.4-19.2zm0-51.2c-39.2 0-70.4 32-70.4 70.4 0 39.2 32 70.4 70.4 70.4 39.2 0 70.4-32 70.4-70.4 0-39.2-31.2-70.4-70.4-70.4zm0-27.2c53.6 0 97.6 44 97.6 97.6 0 53.6-44 97.6-97.6 97.6-53.6 0-97.6-44-97.6-97.6 0-53.6 44-97.6 97.6-97.6zm84-10.4l24 24-20 20-24-24zm-168 0l20 20-24 24-20-19.2zM98.4 0h59.2v34.4h-10.4v16h-38.4v-16H98.4z"/></svg>